<svg width="24" height="12" viewBox="0 0 24 12" fill="none" xmlns="http://www.w3.org/2000/svg">
<path d="M5.20095 5.56C5.36895 5.6 5.47695 5.692 5.52495 5.836C5.58095 5.972 5.58895 6.116 5.54895 6.268C5.50895 6.412 5.42895 6.536 5.30895 6.64C5.18895 6.736 5.04495 6.764 4.87695 6.724L2.77695 6.148L2.22495 7.48C2.15295 7.64 2.03695 7.74 1.87695 7.78C1.72495 7.812 1.57295 7.804 1.42095 7.756C1.27695 7.708 1.15695 7.628 1.06095 7.516C0.972953 7.396 0.964953 7.26 1.03695 7.108L2.54895 3.484C2.32495 3.5 2.10895 3.512 1.90095 3.52C1.69295 3.528 1.49695 3.54 1.31295 3.556C1.14495 3.572 1.01295 3.528 0.916953 3.424C0.820953 3.312 0.764953 3.184 0.748953 3.04C0.740953 2.896 0.776953 2.76 0.856953 2.632C0.944953 2.504 1.08495 2.428 1.27695 2.404C1.53295 2.38 1.81295 2.36 2.11695 2.344C2.42895 2.328 2.74095 2.316 3.05295 2.308C3.37295 2.292 3.68495 2.284 3.98895 2.284C4.29295 2.276 4.56495 2.272 4.80495 2.272C4.96495 2.272 5.08495 2.332 5.16495 2.452C5.25295 2.572 5.29695 2.704 5.29695 2.848C5.30495 2.992 5.26895 3.124 5.18895 3.244C5.10895 3.364 4.98095 3.424 4.80495 3.424C4.66895 3.424 4.52495 3.424 4.37295 3.424C4.22895 3.424 4.07695 3.428 3.91695 3.436L3.24495 5.032L5.20095 5.56ZM6.46095 2.356C6.45295 2.172 6.50895 2.036 6.62895 1.948C6.75695 1.852 6.90095 1.804 7.06095 1.804C7.22095 1.804 7.36895 1.848 7.50495 1.936C7.64095 2.024 7.71295 2.16 7.72095 2.344C7.74495 2.704 7.76895 3.108 7.79295 3.556C7.82495 4.004 7.84895 4.452 7.86495 4.9C7.88895 5.348 7.90895 5.776 7.92495 6.184C7.94895 6.592 7.96495 6.932 7.97295 7.204C7.97295 7.388 7.90895 7.528 7.78095 7.624C7.65295 7.712 7.50895 7.756 7.34895 7.756C7.19695 7.756 7.05295 7.712 6.91695 7.624C6.78095 7.528 6.71295 7.388 6.71295 7.204C6.69695 6.948 6.67695 6.628 6.65295 6.244C6.63695 5.86 6.62095 5.452 6.60495 5.02L5.46495 5.056C5.26495 5.064 5.10895 5.004 4.99695 4.876C4.89295 4.748 4.84095 4.616 4.84095 4.48C4.82495 4.36 4.86895 4.236 4.97295 4.108C5.08495 3.98 5.23295 3.908 5.41695 3.892L6.54495 3.856C6.52895 3.584 6.51295 3.324 6.49695 3.076C6.48895 2.82 6.47695 2.58 6.46095 2.356ZM2.44095 8.26C2.44095 8.084 2.50895 7.952 2.64495 7.864C2.78095 7.768 2.92895 7.72 3.08895 7.72C3.25695 7.72 3.40895 7.764 3.54495 7.852C3.68095 7.94 3.74895 8.076 3.74895 8.26L3.78495 9.436C3.78495 9.58 3.85695 9.672 4.00095 9.712C4.20895 9.76 4.47295 9.804 4.79295 9.844C5.11295 9.876 5.43695 9.908 5.76495 9.94C6.09295 9.964 6.39295 9.984 6.66495 10C6.94495 10.016 7.14095 10.024 7.25295 10.024C7.43695 10.024 7.57295 10.088 7.66095 10.216C7.74895 10.344 7.79295 10.48 7.79295 10.624C7.79295 10.776 7.74895 10.916 7.66095 11.044C7.57295 11.172 7.43695 11.236 7.25295 11.236C7.14895 11.236 6.99695 11.228 6.79695 11.212C6.59695 11.204 6.37295 11.188 6.12495 11.164C5.88495 11.148 5.62495 11.124 5.34495 11.092C5.07295 11.068 4.80495 11.04 4.54095 11.008C4.28495 10.976 4.04495 10.936 3.82095 10.888C3.59695 10.848 3.41295 10.808 3.26895 10.768C3.03695 10.704 2.85295 10.568 2.71695 10.36C2.58895 10.16 2.52095 9.92 2.51295 9.64L2.44095 8.26ZM13.1881 5.044C13.0601 5.212 12.9081 5.304 12.7321 5.32C12.5641 5.328 12.4161 5.288 12.2881 5.2C12.1601 5.112 12.0721 4.992 12.0241 4.84C11.9841 4.688 12.0241 4.536 12.1441 4.384L14.8081 0.999999C14.9441 0.824 15.1001 0.732 15.2761 0.723999C15.4521 0.707999 15.6041 0.743999 15.7321 0.831999C15.8601 0.912 15.9441 1.028 15.9841 1.18C16.0321 1.332 15.9881 1.492 15.8521 1.66L14.9161 2.848L17.3041 3.292C17.5121 3.332 17.6561 3.424 17.7361 3.568C17.8241 3.704 17.8521 3.848 17.8201 4C17.7881 4.144 17.7081 4.268 17.5801 4.372C17.4521 4.468 17.2841 4.496 17.0761 4.456L14.1121 3.856L13.1881 5.044ZM14.2081 5.08C14.2001 4.896 14.2601 4.76 14.3881 4.672C14.5241 4.576 14.6721 4.528 14.8321 4.528C14.9921 4.528 15.1401 4.576 15.2761 4.672C15.4201 4.76 15.5001 4.896 15.5161 5.08L15.5401 5.884L17.4121 5.788C17.5801 5.78 17.7081 5.836 17.7961 5.956C17.8921 6.068 17.9441 6.196 17.9521 6.34C17.9601 6.484 17.9201 6.62 17.8321 6.748C17.7521 6.876 17.6201 6.944 17.4361 6.952L12.5041 7.216C12.3521 7.224 12.2321 7.172 12.1441 7.06C12.0641 6.94 12.0201 6.808 12.0121 6.664C12.0121 6.52 12.0481 6.384 12.1201 6.256C12.2001 6.128 12.3201 6.056 12.4801 6.04L14.2441 5.956L14.2081 5.08ZM15.1321 11.752C14.8441 11.752 14.5681 11.704 14.3041 11.608C14.0481 11.512 13.8201 11.376 13.6201 11.2C13.4281 11.032 13.2721 10.832 13.1521 10.6C13.0401 10.368 12.9841 10.12 12.9841 9.856C12.9841 9.568 13.0401 9.292 13.1521 9.028C13.2721 8.764 13.4321 8.532 13.6321 8.332C13.8401 8.132 14.0841 7.972 14.3641 7.852C14.6441 7.732 14.9441 7.672 15.2641 7.672C15.5521 7.672 15.8241 7.72 16.0801 7.816C16.3441 7.912 16.5721 8.048 16.7641 8.224C16.9561 8.392 17.1081 8.592 17.2201 8.824C17.3401 9.056 17.4001 9.308 17.4001 9.58C17.4001 9.868 17.3401 10.144 17.2201 10.408C17.1081 10.672 16.9521 10.904 16.7521 11.104C16.5521 11.304 16.3121 11.46 16.0321 11.572C15.7601 11.692 15.4601 11.752 15.1321 11.752ZM15.2641 8.8C15.1121 8.792 14.9721 8.816 14.8441 8.872C14.7241 8.92 14.6201 8.992 14.5321 9.088C14.4521 9.184 14.3881 9.296 14.3401 9.424C14.2921 9.544 14.2681 9.672 14.2681 9.808C14.2681 10.056 14.3481 10.252 14.5081 10.396C14.6681 10.548 14.8761 10.624 15.1321 10.624C15.4921 10.616 15.7481 10.52 15.9001 10.336C16.0521 10.152 16.1281 9.912 16.1281 9.616C16.1281 9.376 16.0521 9.184 15.9001 9.04C15.7561 8.896 15.5441 8.816 15.2641 8.8ZM22.5599 9.172C22.5599 8.996 22.6279 8.86 22.7639 8.764C22.9079 8.668 23.0639 8.616 23.2319 8.608C23.4079 8.6 23.5679 8.644 23.7119 8.74C23.8559 8.828 23.9319 8.972 23.9399 9.172L23.9519 9.616C23.9519 9.808 23.8799 9.948 23.7359 10.036C23.5999 10.132 23.4439 10.18 23.2679 10.18C23.0999 10.18 22.9439 10.132 22.7999 10.036C22.6559 9.948 22.5799 9.808 22.5719 9.616L22.5599 9.172ZM22.2839 2.812C22.2679 2.62 22.3279 2.476 22.4639 2.38C22.5999 2.284 22.7519 2.236 22.9199 2.236C23.0959 2.236 23.2599 2.284 23.4119 2.38C23.5639 2.468 23.6479 2.604 23.6639 2.788C23.6959 3.364 23.7279 3.944 23.7599 4.528C23.7919 5.104 23.8159 5.676 23.8319 6.244L23.8679 7.6C23.8679 7.792 23.7959 7.936 23.6519 8.032C23.5159 8.12 23.3599 8.164 23.1839 8.164C23.0159 8.164 22.8599 8.12 22.7159 8.032C22.5719 7.936 22.4999 7.792 22.4999 7.6L22.4759 6.244C22.4439 5.676 22.4119 5.108 22.3799 4.54C22.3559 3.964 22.3239 3.388 22.2839 2.812Z" fill="white"/>
</svg>
