<svg width="63" height="12" viewBox="0 0 63 12" fill="none" xmlns="http://www.w3.org/2000/svg">
<path d="M4.76677 8.764C4.57477 8.884 4.35077 9.052 4.09477 9.268C3.83877 9.476 3.57877 9.676 3.31477 9.868C3.05877 10.052 2.81477 10.196 2.58277 10.3C2.35877 10.404 2.17477 10.404 2.03077 10.3C1.94277 10.236 1.88677 10.136 1.86277 10C1.83877 9.856 1.83477 9.696 1.85077 9.52C1.87477 9.336 1.91477 9.14 1.97077 8.932C2.02677 8.716 2.08277 8.504 2.13877 8.296C2.20277 8.08 2.26277 7.872 2.31877 7.672C2.37477 7.464 2.41477 7.276 2.43877 7.108C2.27877 6.924 2.09877 6.728 1.89877 6.52C1.70677 6.304 1.52677 6.092 1.35877 5.884C1.19877 5.676 1.06677 5.484 0.962766 5.308C0.866766 5.132 0.834766 4.992 0.866766 4.888C0.906766 4.752 1.01877 4.656 1.20277 4.6C1.38677 4.536 1.60277 4.492 1.85077 4.468C2.10677 4.444 2.37077 4.432 2.64277 4.432C2.92277 4.424 3.17477 4.408 3.39877 4.384C3.55077 4.152 3.71077 3.892 3.87877 3.604C4.04677 3.316 4.21477 3.048 4.38277 2.8C4.55877 2.552 4.73077 2.344 4.89877 2.176C5.07477 2.008 5.23877 1.932 5.39077 1.948C5.51877 1.956 5.63477 2.048 5.73877 2.224C5.85077 2.392 5.95077 2.6 6.03877 2.848C6.13477 3.088 6.22277 3.348 6.30277 3.628C6.38277 3.9 6.46277 4.148 6.54277 4.372C6.79077 4.42 7.05877 4.464 7.34677 4.504C7.63477 4.544 7.90277 4.596 8.15077 4.66C8.40677 4.724 8.62277 4.804 8.79877 4.9C8.97477 4.996 9.07077 5.124 9.08677 5.284C9.10277 5.388 9.05077 5.516 8.93077 5.668C8.81077 5.82 8.65077 5.984 8.45077 6.16C8.25877 6.328 8.04277 6.5 7.80277 6.676C7.57077 6.852 7.35077 7.024 7.14277 7.192C7.17477 7.472 7.21477 7.78 7.26277 8.116C7.31877 8.452 7.35877 8.772 7.38277 9.076C7.41477 9.38 7.42277 9.648 7.40677 9.88C7.39077 10.112 7.33477 10.26 7.23877 10.324C7.11877 10.396 6.95877 10.384 6.75877 10.288C6.55877 10.2 6.34277 10.068 6.11077 9.892C5.88677 9.716 5.65477 9.524 5.41477 9.316C5.18277 9.1 4.96677 8.916 4.76677 8.764ZM16.1019 4.756C15.7899 4.756 15.4979 4.708 15.2259 4.612C14.9619 4.516 14.7299 4.384 14.5299 4.216C14.3299 4.048 14.1699 3.848 14.0499 3.616C13.9379 3.376 13.8779 3.116 13.8699 2.836C13.8619 2.564 13.9099 2.3 14.0139 2.044C14.1259 1.78 14.2819 1.544 14.4819 1.336C14.6899 1.128 14.9419 0.96 15.2379 0.831999C15.5419 0.704 15.8819 0.64 16.2579 0.64C16.5459 0.64 16.8259 0.692 17.0979 0.796C17.3699 0.9 17.6059 1.04 17.8059 1.216C18.0139 1.392 18.1779 1.596 18.2979 1.828C18.4259 2.052 18.4899 2.292 18.4899 2.548C18.4899 2.836 18.4379 3.112 18.3339 3.376C18.2379 3.64 18.0899 3.876 17.8899 4.084C17.6899 4.284 17.4379 4.448 17.1339 4.576C16.8379 4.696 16.4939 4.756 16.1019 4.756ZM16.2459 1.72C15.8939 1.72 15.6139 1.82 15.4059 2.02C15.2059 2.22 15.1219 2.488 15.1539 2.824C15.1699 3.064 15.2619 3.268 15.4299 3.436C15.5979 3.604 15.8299 3.688 16.1259 3.688C16.4859 3.688 16.7539 3.596 16.9299 3.412C17.1139 3.228 17.2059 2.984 17.2059 2.68C17.2059 2.368 17.1099 2.132 16.9179 1.972C16.7259 1.804 16.5019 1.72 16.2459 1.72ZM18.6699 5.116C18.8379 5.116 18.9659 5.176 19.0539 5.296C19.1499 5.408 19.2019 5.54 19.2099 5.692C19.2179 5.836 19.1779 5.972 19.0899 6.1C19.0099 6.22 18.8779 6.284 18.6939 6.292L13.7499 6.544C13.5979 6.552 13.4779 6.5 13.3899 6.388C13.3099 6.276 13.2659 6.148 13.2579 6.004C13.2579 5.852 13.2939 5.712 13.3659 5.584C13.4459 5.456 13.5659 5.388 13.7259 5.38L18.6699 5.116ZM14.0619 9.604C14.0539 9.324 14.1379 9.12 14.3139 8.992C14.4899 8.864 14.7019 8.8 14.9499 8.8H17.3019L17.2179 8.176C17.2099 8.152 17.2059 8.14 17.2059 8.14C17.2139 8.14 17.1939 8.14 17.1459 8.14C17.0019 8.14 16.8299 8.144 16.6299 8.152C16.4379 8.152 16.2379 8.156 16.0299 8.164C15.8299 8.172 15.6299 8.184 15.4299 8.2C15.2379 8.208 15.0699 8.22 14.9259 8.236C14.7579 8.252 14.6219 8.208 14.5179 8.104C14.4139 8 14.3499 7.88 14.3259 7.744C14.3019 7.608 14.3219 7.48 14.3859 7.36C14.4499 7.232 14.5659 7.152 14.7339 7.12C14.8859 7.104 15.0699 7.088 15.2859 7.072C15.5019 7.056 15.7299 7.044 15.9699 7.036C16.2179 7.02 16.4659 7.012 16.7139 7.012C16.9699 7.004 17.2099 7 17.4339 7C17.7459 7 17.9779 7.088 18.1299 7.264C18.2899 7.432 18.3899 7.632 18.4299 7.864L18.6099 8.92C18.6739 9.224 18.6339 9.468 18.4899 9.652C18.3539 9.836 18.1499 9.928 17.8779 9.928H15.3219L15.3339 10.348C15.3339 10.38 15.3339 10.396 15.3339 10.396C15.3419 10.396 15.3539 10.396 15.3699 10.396C15.5619 10.444 15.7899 10.484 16.0539 10.516C16.3179 10.548 16.5899 10.576 16.8699 10.6C17.1579 10.632 17.4459 10.656 17.7339 10.672C18.0219 10.696 18.2859 10.712 18.5259 10.72C18.6779 10.728 18.7979 10.784 18.8859 10.888C18.9739 10.992 19.0179 11.112 19.0179 11.248C19.0179 11.368 18.9739 11.488 18.8859 11.608C18.8059 11.736 18.7019 11.8 18.5739 11.8C18.2859 11.8 17.9859 11.792 17.6739 11.776C17.3619 11.76 17.0499 11.736 16.7379 11.704C16.4339 11.68 16.1379 11.648 15.8499 11.608C15.5699 11.568 15.3139 11.524 15.0819 11.476C14.7379 11.404 14.4899 11.284 14.3379 11.116C14.1939 10.956 14.1139 10.7 14.0979 10.348L14.0619 9.604ZM27.3937 2.332C27.3937 2.26 27.3777 2.216 27.3457 2.2C27.3137 2.184 27.2417 2.176 27.1297 2.176C26.8977 2.176 26.6537 2.176 26.3977 2.176C26.1497 2.168 25.9017 2.16 25.6537 2.152C25.4137 2.144 25.1817 2.136 24.9577 2.128C24.7417 2.12 24.5417 2.112 24.3577 2.104C24.1897 2.104 24.0577 2.04 23.9617 1.912C23.8737 1.784 23.8297 1.652 23.8297 1.516C23.8377 1.396 23.8937 1.272 23.9977 1.144C24.1097 1.016 24.2617 0.956 24.4537 0.964C24.6457 0.964 24.8737 0.968 25.1377 0.976C25.4017 0.976 25.6777 0.98 25.9657 0.987999C26.2537 0.987999 26.5417 0.991999 26.8297 0.999999C27.1257 0.999999 27.4017 1.004 27.6577 1.012C27.9857 1.028 28.2337 1.132 28.4017 1.324C28.5697 1.508 28.6617 1.768 28.6777 2.104C28.6777 2.216 28.6777 2.352 28.6777 2.512C28.6777 2.672 28.6737 2.844 28.6657 3.028C28.6577 3.204 28.6497 3.38 28.6417 3.556C28.6337 3.732 28.6217 3.896 28.6057 4.048C28.5897 4.248 28.5137 4.396 28.3777 4.492C28.2417 4.588 28.0937 4.636 27.9337 4.636C27.7817 4.628 27.6417 4.572 27.5137 4.468C27.3937 4.364 27.3337 4.212 27.3337 4.012C27.3337 3.908 27.3377 3.78 27.3457 3.628C27.3537 3.468 27.3577 3.308 27.3577 3.148C27.3657 2.98 27.3737 2.824 27.3817 2.68C27.3897 2.528 27.3937 2.412 27.3937 2.332ZM24.9697 3.832C24.9617 3.648 25.0217 3.512 25.1497 3.424C25.2857 3.328 25.4337 3.28 25.5937 3.28C25.7617 3.28 25.9137 3.328 26.0497 3.424C26.1937 3.512 26.2697 3.648 26.2777 3.832L26.3497 5.224L28.6537 5.092C28.8297 5.092 28.9617 5.152 29.0497 5.272C29.1457 5.392 29.1937 5.524 29.1937 5.668C29.2017 5.812 29.1617 5.948 29.0737 6.076C28.9937 6.196 28.8617 6.256 28.6777 6.256L23.7697 6.52C23.6177 6.528 23.4977 6.476 23.4097 6.364C23.3297 6.252 23.2857 6.124 23.2777 5.98C23.2777 5.836 23.3137 5.7 23.3857 5.572C23.4657 5.444 23.5857 5.376 23.7457 5.368L25.0537 5.296L24.9697 3.832ZM24.0697 9.604C24.0617 9.324 24.1457 9.12 24.3217 8.992C24.4977 8.864 24.7097 8.8 24.9577 8.8H27.3097L27.2257 8.176C27.2177 8.152 27.2137 8.14 27.2137 8.14C27.2217 8.14 27.2017 8.14 27.1537 8.14C27.0097 8.14 26.8377 8.144 26.6377 8.152C26.4457 8.152 26.2457 8.156 26.0377 8.164C25.8377 8.172 25.6377 8.184 25.4377 8.2C25.2457 8.208 25.0777 8.22 24.9337 8.236C24.7657 8.252 24.6297 8.208 24.5257 8.104C24.4217 8 24.3577 7.88 24.3337 7.744C24.3097 7.608 24.3297 7.48 24.3937 7.36C24.4577 7.232 24.5737 7.152 24.7417 7.12C24.8937 7.104 25.0777 7.088 25.2937 7.072C25.5097 7.056 25.7377 7.044 25.9777 7.036C26.2257 7.02 26.4737 7.012 26.7217 7.012C26.9777 7.004 27.2177 7 27.4417 7C27.7537 7 27.9857 7.088 28.1377 7.264C28.2977 7.432 28.3977 7.632 28.4377 7.864L28.6177 8.92C28.6817 9.224 28.6417 9.468 28.4977 9.652C28.3617 9.836 28.1577 9.928 27.8857 9.928H25.3297L25.3417 10.348C25.3417 10.38 25.3417 10.396 25.3417 10.396C25.3497 10.396 25.3617 10.396 25.3777 10.396C25.5697 10.444 25.7977 10.484 26.0617 10.516C26.3257 10.548 26.5977 10.576 26.8777 10.6C27.1657 10.632 27.4537 10.656 27.7417 10.672C28.0297 10.696 28.2937 10.712 28.5337 10.72C28.6857 10.728 28.8057 10.784 28.8937 10.888C28.9817 10.992 29.0257 11.112 29.0257 11.248C29.0257 11.368 28.9817 11.488 28.8937 11.608C28.8137 11.736 28.7097 11.8 28.5817 11.8C28.2937 11.8 27.9937 11.792 27.6817 11.776C27.3697 11.76 27.0577 11.736 26.7457 11.704C26.4417 11.68 26.1457 11.648 25.8577 11.608C25.5777 11.568 25.3217 11.524 25.0897 11.476C24.7457 11.404 24.4977 11.284 24.3457 11.116C24.2017 10.956 24.1217 10.7 24.1057 10.348L24.0697 9.604ZM30.2506 6.772C30.2666 6.476 30.3506 6.244 30.5026 6.076C30.6546 5.908 30.8586 5.824 31.1146 5.824H33.2386L33.0946 4.66C33.0786 4.596 33.0386 4.564 32.9746 4.564C32.8386 4.564 32.6826 4.568 32.5066 4.576C32.3386 4.576 32.1626 4.58 31.9786 4.588C31.8026 4.588 31.6266 4.592 31.4506 4.6C31.2826 4.608 31.1306 4.62 30.9946 4.636C30.8186 4.66 30.6786 4.62 30.5746 4.516C30.4706 4.412 30.4066 4.292 30.3826 4.156C30.3586 4.012 30.3786 3.876 30.4426 3.748C30.5066 3.62 30.6186 3.544 30.7786 3.52C30.9306 3.496 31.1026 3.476 31.2946 3.46C31.4946 3.444 31.7026 3.432 31.9186 3.424C32.1426 3.416 32.3666 3.412 32.5906 3.412C32.8226 3.404 33.0506 3.4 33.2746 3.4C33.5866 3.4 33.8266 3.48 33.9946 3.64C34.1706 3.8 34.2746 4.008 34.3066 4.264L34.5226 6.004C34.5946 6.652 34.3506 6.976 33.7906 6.976H31.5466V7.828C31.5466 7.98 31.6186 8.076 31.7626 8.116C31.9706 8.164 32.1906 8.208 32.4226 8.248C32.6546 8.28 32.8826 8.312 33.1066 8.344C33.3306 8.368 33.5346 8.388 33.7186 8.404C33.9026 8.42 34.0506 8.428 34.1626 8.428C34.3466 8.428 34.4826 8.488 34.5706 8.608C34.6586 8.72 34.7026 8.848 34.7026 8.992C34.7026 9.136 34.6586 9.268 34.5706 9.388C34.4826 9.5 34.3466 9.556 34.1626 9.556C34.0026 9.556 33.7906 9.544 33.5266 9.52C33.2626 9.496 32.9786 9.464 32.6746 9.424C32.3786 9.376 32.0826 9.324 31.7866 9.268C31.4906 9.212 31.2346 9.152 31.0186 9.088C30.7866 9.024 30.6026 8.892 30.4666 8.692C30.3386 8.484 30.2706 8.24 30.2626 7.96L30.2506 6.772ZM35.5906 3.244C35.5826 3.06 35.6386 2.924 35.7586 2.836C35.8866 2.74 36.0266 2.692 36.1786 2.692C36.3386 2.684 36.4866 2.724 36.6226 2.812C36.7666 2.9 36.8426 3.036 36.8506 3.22C36.8666 3.5 36.8866 3.848 36.9106 4.264C36.9426 4.68 36.9706 5.116 36.9946 5.572L38.0386 5.524C38.2226 5.524 38.3666 5.584 38.4706 5.704C38.5826 5.816 38.6386 5.944 38.6386 6.088C38.6386 6.224 38.5866 6.36 38.4826 6.496C38.3786 6.624 38.2306 6.688 38.0386 6.688L37.0666 6.736C37.0986 7.24 37.1266 7.712 37.1506 8.152C37.1826 8.584 37.2066 8.928 37.2226 9.184C37.2386 9.368 37.1826 9.508 37.0546 9.604C36.9266 9.7 36.7826 9.748 36.6226 9.748C36.4706 9.748 36.3266 9.704 36.1906 9.616C36.0546 9.52 35.9786 9.38 35.9626 9.196C35.9546 9.004 35.9386 8.76 35.9146 8.464C35.8986 8.168 35.8786 7.84 35.8546 7.48C35.8306 7.112 35.8066 6.732 35.7826 6.34C35.7586 5.948 35.7346 5.564 35.7106 5.188C35.6866 4.804 35.6626 4.444 35.6386 4.108C35.6226 3.772 35.6066 3.484 35.5906 3.244ZM43.8029 2.176C43.9629 2.176 44.0829 2.236 44.1629 2.356C44.2509 2.476 44.2989 2.608 44.3069 2.752C44.3149 2.896 44.2789 3.028 44.1989 3.148C44.1189 3.268 43.9909 3.328 43.8149 3.328C43.6869 3.328 43.5389 3.332 43.3709 3.34C43.2029 3.34 43.0269 3.34 42.8429 3.34L42.0389 4.408L44.2349 5.068C44.4429 5.124 44.5789 5.224 44.6429 5.368C44.7149 5.512 44.7309 5.656 44.6909 5.8C44.6509 5.936 44.5629 6.048 44.4269 6.136C44.2909 6.216 44.1189 6.228 43.9109 6.172L41.2949 5.38L40.4189 6.532C40.2989 6.692 40.1549 6.776 39.9869 6.784C39.8189 6.792 39.6669 6.756 39.5309 6.676C39.4029 6.588 39.3149 6.472 39.2669 6.328C39.2189 6.176 39.2549 6.024 39.3749 5.872L41.2469 3.412C40.9749 3.428 40.7189 3.444 40.4789 3.46C40.2389 3.468 40.0269 3.48 39.8429 3.496C39.6749 3.512 39.5429 3.468 39.4469 3.364C39.3509 3.252 39.2949 3.124 39.2789 2.98C39.2709 2.836 39.3069 2.7 39.3869 2.572C39.4749 2.444 39.6149 2.368 39.8069 2.344C40.0629 2.32 40.3709 2.3 40.7309 2.284C41.0989 2.26 41.4749 2.24 41.8589 2.224C42.2429 2.208 42.6069 2.196 42.9509 2.188C43.3029 2.18 43.5869 2.176 43.8029 2.176ZM44.4629 7C44.6309 7 44.7589 7.06 44.8469 7.18C44.9429 7.3 44.9949 7.436 45.0029 7.588C45.0109 7.732 44.9709 7.868 44.8829 7.996C44.8029 8.116 44.6709 8.176 44.4869 8.176L42.8549 8.26L42.9509 9.892C42.9669 10.092 42.9069 10.24 42.7709 10.336C42.6349 10.44 42.4829 10.492 42.3149 10.492C42.1469 10.492 41.9909 10.444 41.8469 10.348C41.7029 10.252 41.6269 10.104 41.6189 9.904L41.5229 8.332L39.5549 8.428C39.4029 8.436 39.2829 8.384 39.1949 8.272C39.1149 8.152 39.0709 8.02 39.0629 7.876C39.0629 7.732 39.0989 7.596 39.1709 7.468C39.2509 7.34 39.3709 7.272 39.5309 7.264L44.4629 7ZM48.9038 2.116C49.7838 2.116 50.1158 2.516 49.8998 3.316C49.8838 3.396 49.8598 3.48 49.8278 3.568C49.7958 3.656 49.7598 3.752 49.7198 3.856C49.8158 3.76 49.9438 3.712 50.1038 3.712L50.7638 3.688L50.7278 2.02C50.7278 1.836 50.7878 1.704 50.9078 1.624C51.0358 1.536 51.1758 1.496 51.3278 1.504C51.4878 1.504 51.6318 1.552 51.7598 1.648C51.8958 1.744 51.9638 1.884 51.9638 2.068L52.0598 6.448C52.0598 6.64 51.9958 6.78 51.8678 6.868C51.7398 6.948 51.5998 6.988 51.4478 6.988C51.2958 6.98 51.1518 6.928 51.0158 6.832C50.8878 6.728 50.8238 6.584 50.8238 6.4L50.7878 4.852L50.1038 4.876C49.9358 4.876 49.7958 4.824 49.6838 4.72C49.5798 4.616 49.5198 4.496 49.5038 4.36C49.4078 4.576 49.3038 4.8 49.1918 5.032C49.0798 5.264 48.9678 5.484 48.8558 5.692C48.7438 5.9 48.6358 6.092 48.5318 6.268C48.4278 6.436 48.3318 6.576 48.2438 6.688C48.1238 6.84 47.9878 6.92 47.8358 6.928C47.6838 6.936 47.5478 6.9 47.4278 6.82C47.3078 6.732 47.2238 6.616 47.1758 6.472C47.1278 6.32 47.1518 6.164 47.2478 6.004C47.5518 5.484 47.8118 5.036 48.0278 4.66C48.2518 4.276 48.4398 3.9 48.5918 3.532C48.6318 3.444 48.6398 3.38 48.6158 3.34C48.5998 3.3 48.5358 3.28 48.4238 3.28C48.2958 3.28 48.1478 3.28 47.9798 3.28C47.8118 3.28 47.6318 3.28 47.4398 3.28C47.2558 3.272 47.0678 3.264 46.8758 3.256C46.6838 3.24 46.4958 3.224 46.3118 3.208C46.1518 3.192 46.0238 3.128 45.9278 3.016C45.8398 2.896 45.7958 2.764 45.7958 2.62C45.8038 2.5 45.8598 2.376 45.9638 2.248C46.0758 2.12 46.2278 2.06 46.4198 2.068C46.6118 2.068 46.8198 2.072 47.0438 2.08C47.2758 2.088 47.5038 2.096 47.7278 2.104C47.9598 2.104 48.1758 2.108 48.3758 2.116C48.5838 2.116 48.7598 2.116 48.9038 2.116ZM52.5878 1.924C52.5798 1.74 52.6358 1.604 52.7558 1.516C52.8838 1.42 53.0238 1.372 53.1758 1.372C53.3358 1.364 53.4838 1.404 53.6198 1.492C53.7558 1.58 53.8318 1.716 53.8478 1.9L54.2198 6.532C54.2358 6.724 54.1798 6.868 54.0518 6.964C53.9318 7.052 53.7918 7.1 53.6318 7.108C53.4718 7.108 53.3238 7.064 53.1878 6.976C53.0518 6.88 52.9758 6.74 52.9598 6.556L52.5878 1.924ZM54.2438 9.796C54.4518 9.868 54.5838 9.98 54.6398 10.132C54.7038 10.284 54.7078 10.428 54.6518 10.564C54.5958 10.708 54.4918 10.816 54.3398 10.888C54.1958 10.968 54.0238 10.968 53.8238 10.888L52.1438 10.252L51.3758 11.572C51.2878 11.724 51.1638 11.808 51.0038 11.824C50.8438 11.84 50.6958 11.812 50.5598 11.74C50.4238 11.668 50.3198 11.56 50.2478 11.416C50.1838 11.28 50.1998 11.132 50.2958 10.972L50.5838 10.48L49.4438 10.036L48.7598 11.2C48.6718 11.352 48.5478 11.436 48.3878 11.452C48.2278 11.468 48.0798 11.44 47.9438 11.368C47.8078 11.296 47.7038 11.188 47.6318 11.044C47.5678 10.908 47.5838 10.76 47.6798 10.6L49.5878 7.36C49.6838 7.216 49.8118 7.132 49.9718 7.108C50.1318 7.084 50.2798 7.104 50.4158 7.168C50.5598 7.224 50.6678 7.316 50.7398 7.444C50.8118 7.572 50.8078 7.708 50.7278 7.852L50.0438 9.028L51.1838 9.46L52.2638 7.6C52.3598 7.448 52.4878 7.36 52.6478 7.336C52.8078 7.312 52.9558 7.332 53.0918 7.396C53.2358 7.452 53.3438 7.544 53.4158 7.672C53.4878 7.8 53.4838 7.936 53.4038 8.08L52.7318 9.22L54.2438 9.796ZM55.021 4.144C55.013 3.96 55.073 3.82 55.201 3.724C55.329 3.62 55.473 3.568 55.633 3.568C55.793 3.56 55.945 3.604 56.089 3.7C56.233 3.788 56.309 3.936 56.317 4.144L56.521 7.672C56.529 7.816 56.609 7.904 56.761 7.936C57.177 8.04 57.565 8.116 57.925 8.164C58.293 8.212 58.649 8.244 58.993 8.26C59.145 8.26 59.261 8.324 59.341 8.452C59.429 8.572 59.473 8.704 59.473 8.848C59.473 8.992 59.425 9.128 59.329 9.256C59.241 9.376 59.101 9.436 58.909 9.436C58.773 9.436 58.617 9.432 58.441 9.424C58.265 9.408 58.077 9.388 57.877 9.364C57.685 9.332 57.489 9.3 57.289 9.268C57.089 9.228 56.893 9.188 56.701 9.148C56.485 9.1 56.293 9.044 56.125 8.98C55.957 8.916 55.809 8.832 55.681 8.728C55.553 8.624 55.449 8.496 55.369 8.344C55.297 8.192 55.249 8.008 55.225 7.792L55.021 4.144ZM60.733 3.244C60.725 3.06 60.781 2.924 60.901 2.836C61.029 2.74 61.169 2.692 61.321 2.692C61.481 2.684 61.629 2.724 61.765 2.812C61.901 2.9 61.977 3.036 61.993 3.22C62.017 3.46 62.037 3.748 62.053 4.084C62.077 4.412 62.101 4.764 62.125 5.14C62.149 5.516 62.173 5.904 62.197 6.304C62.221 6.696 62.241 7.072 62.257 7.432C62.281 7.792 62.301 8.124 62.317 8.428C62.333 8.732 62.349 8.984 62.365 9.184C62.381 9.368 62.325 9.508 62.197 9.604C62.069 9.692 61.925 9.736 61.765 9.736C61.613 9.736 61.469 9.692 61.333 9.604C61.197 9.508 61.121 9.368 61.105 9.184C61.097 8.992 61.081 8.748 61.057 8.452C61.041 8.148 61.021 7.816 60.997 7.456C60.981 7.096 60.961 6.72 60.937 6.328C60.913 5.936 60.885 5.552 60.853 5.176C60.829 4.8 60.805 4.444 60.781 4.108C60.765 3.772 60.749 3.484 60.733 3.244Z" fill="white"/>
</svg>
