<svg width="55" height="12" viewBox="0 0 55 12" fill="none" xmlns="http://www.w3.org/2000/svg">
<path d="M4.44323 10.456C3.90723 10.24 3.37923 9.956 2.85923 9.604C2.34723 9.244 1.88723 8.824 1.47923 8.344C1.07923 7.856 0.755234 7.308 0.507234 6.7C0.259234 6.092 0.135234 5.428 0.135234 4.708C0.135234 4.348 0.187234 4.028 0.291234 3.748C0.395234 3.46 0.531234 3.216 0.699234 3.016C0.875234 2.808 1.07923 2.652 1.31123 2.548C1.54323 2.436 1.79123 2.38 2.05523 2.38C2.23923 2.38 2.41123 2.412 2.57123 2.476C2.73923 2.54 2.88723 2.62 3.01523 2.716C3.15123 2.804 3.26323 2.9 3.35123 3.004C3.43923 3.108 3.49523 3.204 3.51923 3.292C3.55123 3.196 3.61923 3.076 3.72323 2.932C3.83523 2.788 3.97523 2.648 4.14323 2.512C4.31923 2.376 4.51923 2.26 4.74323 2.164C4.97523 2.06 5.22723 2.008 5.49923 2.008C5.80323 2.008 6.09123 2.076 6.36323 2.212C6.63523 2.34 6.87123 2.524 7.07123 2.764C7.27923 2.996 7.44323 3.28 7.56324 3.616C7.68323 3.944 7.74323 4.308 7.74323 4.708C7.74323 5.324 7.66323 5.916 7.50324 6.484C7.35123 7.044 7.13123 7.568 6.84324 8.056C6.55523 8.536 6.20723 8.98 5.79923 9.388C5.39123 9.796 4.93923 10.152 4.44323 10.456ZM14.0864 2.836C14.5904 2.828 15.0704 2.82 15.5264 2.812C15.9824 2.804 16.4064 2.796 16.7984 2.788C16.9904 2.78 17.1384 2.84 17.2424 2.968C17.3544 3.096 17.4144 3.22 17.4224 3.34C17.4224 3.476 17.3744 3.608 17.2784 3.736C17.1904 3.864 17.0624 3.928 16.8944 3.928C16.5344 3.944 16.1224 3.96 15.6584 3.976C15.2024 3.992 14.7384 4 14.2664 4C14.1544 4 14.0824 4.008 14.0504 4.024C14.0264 4.04 14.0184 4.092 14.0264 4.18L14.1104 5.872C14.1104 6.032 14.1784 6.124 14.3144 6.148C14.5224 6.18 14.7464 6.208 14.9864 6.232C15.2344 6.256 15.4744 6.276 15.7064 6.292C15.9464 6.308 16.1664 6.32 16.3664 6.328C16.5664 6.336 16.7224 6.34 16.8344 6.34C17.0184 6.34 17.1544 6.404 17.2424 6.532C17.3304 6.652 17.3744 6.784 17.3744 6.928C17.3744 7.072 17.3304 7.208 17.2424 7.336C17.1544 7.456 17.0184 7.516 16.8344 7.516C16.7144 7.516 16.5624 7.516 16.3784 7.516C16.1944 7.508 15.9864 7.496 15.7544 7.48L15.8024 8.668L17.6264 8.56C17.8024 8.56 17.9344 8.62 18.0224 8.74C18.1184 8.86 18.1664 8.992 18.1664 9.136C18.1744 9.28 18.1344 9.416 18.0464 9.544C17.9664 9.664 17.8344 9.724 17.6504 9.724L12.7424 9.988C12.5904 10.004 12.4704 9.956 12.3824 9.844C12.3024 9.724 12.2584 9.592 12.2504 9.448C12.2504 9.304 12.2864 9.168 12.3584 9.04C12.4384 8.912 12.5584 8.844 12.7184 8.836L14.4944 8.74L14.4464 7.348C14.2784 7.324 14.1184 7.3 13.9664 7.276C13.8224 7.244 13.6904 7.208 13.5704 7.168C13.3384 7.104 13.1544 6.972 13.0184 6.772C12.8904 6.564 12.8224 6.32 12.8144 6.04L12.6944 4.012C12.6784 3.604 12.7944 3.308 13.0424 3.124C13.2984 2.932 13.6464 2.836 14.0864 2.836ZM22.1382 2.68C22.1302 2.496 22.1902 2.356 22.3182 2.26C22.4462 2.156 22.5902 2.104 22.7502 2.104C22.9102 2.096 23.0622 2.14 23.2062 2.236C23.3502 2.324 23.4262 2.472 23.4342 2.68L23.5782 4.924C23.5862 5.068 23.6662 5.156 23.8182 5.188C24.2342 5.292 24.6342 5.368 25.0182 5.416C25.4022 5.464 25.7662 5.496 26.1102 5.512C26.2622 5.512 26.3782 5.576 26.4582 5.704C26.5462 5.824 26.5902 5.956 26.5902 6.1C26.5902 6.244 26.5422 6.38 26.4462 6.508C26.3582 6.628 26.2182 6.688 26.0262 6.688C25.8902 6.688 25.7302 6.684 25.5462 6.676C25.3702 6.66 25.1782 6.64 24.9702 6.616C24.7702 6.584 24.5662 6.552 24.3582 6.52C24.1502 6.48 23.9502 6.44 23.7582 6.4C23.5422 6.352 23.3502 6.296 23.1822 6.232C23.0142 6.168 22.8662 6.084 22.7382 5.98C22.6102 5.876 22.5062 5.748 22.4262 5.596C22.3542 5.444 22.3062 5.26 22.2822 5.044L22.1382 2.68ZM30.0582 3.484C30.2422 3.484 30.3862 3.544 30.4902 3.664C30.6022 3.776 30.6582 3.904 30.6582 4.048C30.6582 4.176 30.6062 4.308 30.5022 4.444C30.3982 4.58 30.2502 4.648 30.0582 4.648L29.0862 4.696C29.1022 5.056 29.1182 5.396 29.1342 5.716C29.1502 6.028 29.1662 6.304 29.1822 6.544C29.1902 6.728 29.1262 6.868 28.9902 6.964C28.8622 7.052 28.7182 7.096 28.5582 7.096C28.4062 7.096 28.2622 7.052 28.1262 6.964C27.9902 6.868 27.9182 6.728 27.9102 6.544C27.9022 6.264 27.8902 5.936 27.8742 5.56C27.8582 5.176 27.8382 4.776 27.8142 4.36C27.7902 3.944 27.7662 3.528 27.7422 3.112C27.7182 2.688 27.6942 2.292 27.6702 1.924C27.6622 1.74 27.7182 1.604 27.8382 1.516C27.9662 1.42 28.1062 1.372 28.2582 1.372C28.4182 1.372 28.5662 1.416 28.7022 1.504C28.8462 1.592 28.9222 1.728 28.9302 1.912C28.9462 2.152 28.9622 2.412 28.9782 2.692C28.9942 2.964 29.0102 3.24 29.0262 3.52L30.0582 3.484ZM27.8742 8.596C27.7382 8.596 27.5462 8.596 27.2982 8.596C27.0582 8.596 26.8022 8.6 26.5302 8.608C26.2662 8.616 26.0102 8.624 25.7622 8.632C25.5222 8.632 25.3302 8.64 25.1862 8.656L25.2822 10.156C25.4022 10.18 25.5782 10.204 25.8102 10.228C26.0422 10.252 26.2862 10.276 26.5422 10.3C26.8062 10.332 27.0542 10.356 27.2862 10.372C27.5262 10.396 27.7062 10.412 27.8262 10.42L27.8742 8.596ZM29.0982 10.432C29.0822 10.752 28.9902 11.024 28.8222 11.248C28.6622 11.472 28.3982 11.576 28.0302 11.56C27.8462 11.552 27.6262 11.536 27.3702 11.512C27.1142 11.488 26.8462 11.46 26.5662 11.428C26.2862 11.404 26.0062 11.372 25.7262 11.332C25.4462 11.292 25.1942 11.252 24.9702 11.212C24.7142 11.156 24.4982 11.068 24.3222 10.948C24.1542 10.828 24.0502 10.628 24.0102 10.348L23.8662 8.44C23.8502 7.928 24.0902 7.64 24.5862 7.576C24.7942 7.552 25.0662 7.532 25.4022 7.516C25.7382 7.5 26.0862 7.488 26.4462 7.48C26.8142 7.472 27.1702 7.468 27.5142 7.468C27.8582 7.468 28.1422 7.472 28.3662 7.48C28.5982 7.488 28.7902 7.572 28.9422 7.732C29.0942 7.884 29.1662 8.092 29.1582 8.356L29.0982 10.432ZM34.0824 3.556C34.5384 3.556 34.8544 3.66 35.0304 3.868C35.2064 4.068 35.2344 4.368 35.1144 4.768C35.0264 5.032 34.9104 5.352 34.7664 5.728C34.6224 6.096 34.4584 6.484 34.2744 6.892C34.0904 7.292 33.8904 7.696 33.6744 8.104C33.4664 8.512 33.2504 8.888 33.0264 9.232C32.9224 9.392 32.7904 9.476 32.6304 9.484C32.4704 9.492 32.3264 9.456 32.1984 9.376C32.0704 9.288 31.9784 9.168 31.9224 9.016C31.8664 8.864 31.8864 8.708 31.9824 8.548C32.2064 8.196 32.4144 7.844 32.6064 7.492C32.8064 7.14 32.9864 6.808 33.1464 6.496C33.3064 6.176 33.4424 5.884 33.5544 5.62C33.6744 5.356 33.7624 5.14 33.8184 4.972C33.8504 4.884 33.8424 4.82 33.7944 4.78C33.7544 4.74 33.7024 4.72 33.6384 4.72C33.1744 4.72 32.7744 4.712 32.4384 4.696C32.1024 4.68 31.7544 4.664 31.3944 4.648C31.2264 4.648 31.0944 4.584 30.9984 4.456C30.9104 4.328 30.8664 4.196 30.8664 4.06C30.8744 3.94 30.9304 3.816 31.0344 3.688C31.1464 3.56 31.2984 3.5 31.4904 3.508C31.8824 3.516 32.2864 3.524 32.7024 3.532C33.1184 3.54 33.5784 3.548 34.0824 3.556ZM36.6744 3.244C36.6664 3.06 36.7224 2.924 36.8424 2.836C36.9704 2.74 37.1104 2.692 37.2624 2.692C37.4224 2.684 37.5704 2.724 37.7064 2.812C37.8424 2.9 37.9184 3.036 37.9344 3.22C37.9584 3.46 37.9784 3.748 37.9944 4.084C38.0184 4.412 38.0424 4.764 38.0664 5.14C38.0904 5.516 38.1144 5.904 38.1384 6.304C38.1624 6.696 38.1824 7.072 38.1984 7.432C38.2224 7.792 38.2424 8.124 38.2584 8.428C38.2744 8.732 38.2904 8.984 38.3064 9.184C38.3224 9.368 38.2664 9.508 38.1384 9.604C38.0104 9.692 37.8664 9.736 37.7064 9.736C37.5544 9.736 37.4104 9.692 37.2744 9.604C37.1384 9.508 37.0624 9.368 37.0464 9.184C37.0304 9.024 37.0144 8.832 36.9984 8.608C36.9904 8.384 36.9784 8.132 36.9624 7.852L35.6424 7.912C35.4584 7.912 35.3104 7.856 35.1984 7.744C35.0944 7.632 35.0424 7.504 35.0424 7.36C35.0424 7.224 35.0944 7.092 35.1984 6.964C35.3024 6.836 35.4504 6.772 35.6424 6.772L36.8904 6.712C36.8744 6.536 36.8624 6.364 36.8544 6.196C36.8464 6.02 36.8384 5.84 36.8304 5.656L35.7624 5.728C35.5784 5.728 35.4304 5.672 35.3184 5.56C35.2144 5.448 35.1624 5.32 35.1624 5.176C35.1624 5.04 35.2144 4.908 35.3184 4.78C35.4224 4.652 35.5704 4.588 35.7624 4.588L36.7584 4.528C36.7424 4.28 36.7264 4.048 36.7104 3.832C36.6944 3.616 36.6824 3.42 36.6744 3.244ZM43.9786 0.736C44.1386 0.736 44.2586 0.796 44.3386 0.916C44.4266 1.036 44.4746 1.168 44.4826 1.312C44.4906 1.456 44.4546 1.588 44.3746 1.708C44.2946 1.828 44.1666 1.888 43.9906 1.888C43.8306 1.888 43.6506 1.892 43.4506 1.9C43.2506 1.9 43.0346 1.904 42.8026 1.912L42.3106 2.512L44.4106 3.136C44.6186 3.192 44.7546 3.292 44.8186 3.436C44.8906 3.58 44.9066 3.724 44.8666 3.868C44.8266 4.004 44.7386 4.116 44.6026 4.204C44.4666 4.284 44.2946 4.296 44.0866 4.24L41.5306 3.472L40.5946 4.6C40.4746 4.76 40.3306 4.844 40.1626 4.852C39.9946 4.86 39.8426 4.824 39.7066 4.744C39.5786 4.656 39.4906 4.54 39.4426 4.396C39.3946 4.244 39.4306 4.092 39.5506 3.94L41.1586 1.984C40.9426 2 40.7346 2.012 40.5346 2.02C40.3426 2.028 40.1706 2.04 40.0186 2.056C39.8506 2.072 39.7186 2.028 39.6226 1.924C39.5266 1.812 39.4706 1.684 39.4546 1.54C39.4466 1.396 39.4826 1.26 39.5626 1.132C39.6506 1.004 39.7906 0.927999 39.9826 0.904C40.2386 0.88 40.5466 0.86 40.9066 0.844C41.2746 0.82 41.6506 0.8 42.0346 0.784C42.4186 0.768 42.7826 0.756 43.1266 0.748C43.4786 0.74 43.7626 0.736 43.9786 0.736ZM44.6386 4.948C44.8066 4.948 44.9346 5.008 45.0226 5.128C45.1186 5.248 45.1706 5.38 45.1786 5.524C45.1866 5.668 45.1466 5.804 45.0586 5.932C44.9786 6.052 44.8466 6.112 44.6626 6.112L42.9946 6.208L43.0186 7H43.4026C43.7146 7 43.9466 7.088 44.0986 7.264C44.2586 7.432 44.3586 7.632 44.3986 7.864L44.5786 8.92C44.6426 9.224 44.6026 9.468 44.4586 9.652C44.3226 9.836 44.1186 9.928 43.8466 9.928H41.2906L41.3026 10.348C41.3026 10.38 41.3026 10.396 41.3026 10.396C41.3106 10.396 41.3226 10.396 41.3386 10.396C41.5306 10.444 41.7586 10.484 42.0226 10.516C42.2866 10.548 42.5586 10.576 42.8386 10.6C43.1266 10.632 43.4146 10.656 43.7026 10.672C43.9906 10.696 44.2546 10.712 44.4946 10.72C44.6466 10.728 44.7666 10.784 44.8546 10.888C44.9426 10.992 44.9866 11.112 44.9866 11.248C44.9866 11.368 44.9426 11.488 44.8546 11.608C44.7746 11.736 44.6706 11.8 44.5426 11.8C44.2546 11.8 43.9546 11.792 43.6426 11.776C43.3306 11.76 43.0186 11.736 42.7066 11.704C42.4026 11.68 42.1066 11.648 41.8186 11.608C41.5386 11.568 41.2826 11.524 41.0506 11.476C40.7066 11.404 40.4586 11.284 40.3066 11.116C40.1626 10.956 40.0826 10.7 40.0666 10.348L40.0306 9.604C40.0226 9.324 40.1066 9.12 40.2826 8.992C40.4586 8.864 40.6706 8.8 40.9186 8.8H43.2706L43.1866 8.176C43.1786 8.152 43.1746 8.14 43.1746 8.14C43.1826 8.14 43.1626 8.14 43.1146 8.14C42.9706 8.14 42.7986 8.144 42.5986 8.152C42.4066 8.152 42.2066 8.156 41.9986 8.164C41.7986 8.172 41.5986 8.184 41.3986 8.2C41.2066 8.208 41.0386 8.22 40.8946 8.236C40.7266 8.252 40.5906 8.208 40.4866 8.104C40.3826 8 40.3186 7.88 40.2946 7.744C40.2706 7.608 40.2906 7.48 40.3546 7.36C40.4186 7.232 40.5346 7.152 40.7026 7.12C40.8306 7.104 40.9786 7.092 41.1466 7.084C41.3146 7.076 41.4946 7.064 41.6866 7.048L41.6626 6.28L39.7306 6.376C39.5786 6.384 39.4586 6.332 39.3706 6.22C39.2906 6.1 39.2466 5.968 39.2386 5.824C39.2386 5.68 39.2746 5.544 39.3466 5.416C39.4266 5.288 39.5466 5.22 39.7066 5.212L44.6386 4.948ZM46.2116 6.772C46.2276 6.476 46.3116 6.244 46.4636 6.076C46.6156 5.908 46.8156 5.824 47.0636 5.824H48.8636L48.7196 4.66C48.7036 4.596 48.6596 4.564 48.5876 4.564C48.0436 4.564 47.4996 4.588 46.9556 4.636C46.7796 4.66 46.6396 4.62 46.5356 4.516C46.4316 4.412 46.3676 4.292 46.3436 4.156C46.3196 4.012 46.3396 3.876 46.4036 3.748C46.4676 3.62 46.5796 3.544 46.7396 3.52C47.0436 3.472 47.3636 3.44 47.6996 3.424C48.0356 3.408 48.4276 3.4 48.8756 3.4C49.1876 3.4 49.4276 3.48 49.5956 3.64C49.7716 3.8 49.8756 4.008 49.9076 4.264L50.1236 6.004C50.1636 6.332 50.1196 6.576 49.9916 6.736C49.8636 6.896 49.6676 6.976 49.4036 6.976H47.4596V7.852C47.4596 8.004 47.5316 8.1 47.6756 8.14C48.0996 8.228 48.4956 8.304 48.8636 8.368C49.2396 8.424 49.5396 8.452 49.7636 8.452C49.9476 8.452 50.0836 8.512 50.1716 8.632C50.2596 8.744 50.3036 8.868 50.3036 9.004C50.3036 9.14 50.2596 9.268 50.1716 9.388C50.0836 9.5 49.9476 9.556 49.7636 9.556C49.6036 9.556 49.4076 9.544 49.1756 9.52C48.9516 9.496 48.7116 9.464 48.4556 9.424C48.2076 9.376 47.9516 9.324 47.6876 9.268C47.4316 9.212 47.1956 9.152 46.9796 9.088C46.7476 9.024 46.5636 8.892 46.4276 8.692C46.2996 8.484 46.2316 8.24 46.2236 7.96L46.2116 6.772ZM52.7636 3.244C52.7556 3.06 52.8116 2.924 52.9316 2.836C53.0596 2.74 53.1996 2.692 53.3516 2.692C53.5116 2.684 53.6596 2.724 53.7956 2.812C53.9396 2.9 54.0156 3.036 54.0236 3.22L54.3956 9.172C54.4116 9.364 54.3556 9.508 54.2276 9.604C54.0996 9.692 53.9556 9.74 53.7956 9.748C53.6436 9.748 53.4996 9.704 53.3636 9.616C53.2276 9.52 53.1516 9.38 53.1356 9.196L52.9796 6.76L51.9596 6.808L51.9956 9.088C51.9956 9.28 51.9316 9.42 51.8036 9.508C51.6756 9.588 51.5356 9.628 51.3836 9.628C51.2316 9.62 51.0876 9.568 50.9516 9.472C50.8236 9.368 50.7596 9.224 50.7596 9.04L50.6636 3.34C50.6636 3.156 50.7236 3.024 50.8436 2.944C50.9716 2.856 51.1116 2.816 51.2636 2.824C51.4236 2.824 51.5676 2.872 51.6956 2.968C51.8316 3.064 51.8996 3.204 51.8996 3.388L51.9356 5.644L52.9076 5.608L52.7636 3.244Z" fill="white"/>
</svg>
