<svg width="19" height="12" viewBox="0 0 19 12" fill="none" xmlns="http://www.w3.org/2000/svg">
<path d="M1.81198 3.556C2.31598 3.548 2.75598 3.54 3.13198 3.532C3.50798 3.524 3.89198 3.516 4.28398 3.508C4.47598 3.5 4.62398 3.56 4.72798 3.688C4.83998 3.816 4.89998 3.94 4.90798 4.06C4.90798 4.196 4.85998 4.328 4.76398 4.456C4.67598 4.584 4.54798 4.648 4.37998 4.648C4.01998 4.664 3.64798 4.68 3.26398 4.696C2.88798 4.712 2.46398 4.72 1.99198 4.72C1.87998 4.72 1.80798 4.728 1.77598 4.744C1.75198 4.76 1.74398 4.812 1.75198 4.9L1.83598 7.672C1.83598 7.816 1.90798 7.908 2.05198 7.948C2.25998 7.996 2.47198 8.04 2.68798 8.08C2.91198 8.112 3.12398 8.144 3.32398 8.176C3.53198 8.2 3.71998 8.22 3.88798 8.236C4.06398 8.252 4.20798 8.26 4.31998 8.26C4.50398 8.26 4.63998 8.324 4.72798 8.452C4.81598 8.572 4.85998 8.704 4.85998 8.848C4.85998 8.992 4.81598 9.128 4.72798 9.256C4.63998 9.376 4.50398 9.436 4.31998 9.436C4.15998 9.436 3.95198 9.424 3.69598 9.4C3.44798 9.376 3.17998 9.344 2.89198 9.304C2.61198 9.256 2.32798 9.204 2.03998 9.148C1.75998 9.092 1.51198 9.032 1.29598 8.968C1.06398 8.904 0.879984 8.772 0.743984 8.572C0.615984 8.364 0.547984 8.12 0.539984 7.84L0.419984 4.732C0.403984 4.324 0.519984 4.028 0.767984 3.844C1.02398 3.652 1.37198 3.556 1.81198 3.556ZM5.86798 3.244C5.85998 3.06 5.91598 2.924 6.03598 2.836C6.16398 2.74 6.30398 2.692 6.45598 2.692C6.61598 2.684 6.76398 2.724 6.89998 2.812C7.04398 2.9 7.11998 3.036 7.12798 3.22C7.14398 3.5 7.16398 3.848 7.18798 4.264C7.21998 4.68 7.24798 5.116 7.27198 5.572L8.31598 5.524C8.49998 5.524 8.64399 5.584 8.74799 5.704C8.85999 5.816 8.91599 5.944 8.91599 6.088C8.91599 6.224 8.86399 6.36 8.75998 6.496C8.65598 6.624 8.50798 6.688 8.31598 6.688L7.34398 6.736C7.37598 7.24 7.40398 7.712 7.42798 8.152C7.45999 8.584 7.48398 8.928 7.49998 9.184C7.51598 9.368 7.45998 9.508 7.33198 9.604C7.20398 9.7 7.05998 9.748 6.89998 9.748C6.74798 9.748 6.60398 9.704 6.46798 9.616C6.33198 9.52 6.25598 9.38 6.23998 9.196C6.23198 9.004 6.21598 8.76 6.19198 8.464C6.17598 8.168 6.15598 7.84 6.13198 7.48C6.10798 7.112 6.08398 6.732 6.05998 6.34C6.03598 5.948 6.01198 5.564 5.98798 5.188C5.96398 4.804 5.93998 4.444 5.91598 4.108C5.89998 3.772 5.88398 3.484 5.86798 3.244ZM15.2191 5.02C14.9071 5.02 14.6151 4.972 14.3431 4.876C14.0791 4.78 13.8471 4.648 13.6471 4.48C13.4471 4.304 13.2871 4.096 13.1671 3.856C13.0551 3.616 12.9951 3.352 12.9871 3.064C12.9791 2.784 13.0271 2.512 13.1311 2.248C13.2431 1.976 13.3991 1.736 13.5991 1.528C13.8071 1.312 14.0591 1.14 14.3551 1.012C14.6591 0.876 14.9991 0.808 15.3751 0.808C15.6631 0.808 15.9431 0.864 16.2151 0.976C16.4871 1.08 16.7231 1.224 16.9231 1.408C17.1311 1.584 17.2951 1.788 17.4151 2.02C17.5431 2.252 17.6071 2.496 17.6071 2.752C17.6071 3.048 17.5551 3.332 17.4511 3.604C17.3551 3.876 17.2071 4.116 17.0071 4.324C16.8071 4.532 16.5551 4.7 16.2511 4.828C15.9551 4.956 15.6111 5.02 15.2191 5.02ZM15.3631 1.936C15.0111 1.936 14.7311 2.036 14.5231 2.236C14.3231 2.436 14.2391 2.704 14.2711 3.04C14.2871 3.28 14.3791 3.484 14.5471 3.652C14.7151 3.82 14.9471 3.904 15.2431 3.904C15.6031 3.904 15.8711 3.812 16.0471 3.628C16.2311 3.444 16.3231 3.2 16.3231 2.896C16.3231 2.584 16.2271 2.348 16.0351 2.188C15.8431 2.02 15.6191 1.936 15.3631 1.936ZM17.7751 5.728C17.9431 5.72 18.0711 5.776 18.1591 5.896C18.2551 6.016 18.3071 6.148 18.3151 6.292C18.3231 6.436 18.2831 6.572 18.1951 6.7C18.1151 6.828 17.9831 6.892 17.7991 6.892L12.8671 7.144C12.7151 7.152 12.5951 7.1 12.5071 6.988C12.4271 6.868 12.3831 6.736 12.3751 6.592C12.3751 6.448 12.4111 6.312 12.4831 6.184C12.5631 6.056 12.6831 5.988 12.8431 5.98L17.7751 5.728ZM16.8631 9.04C16.7271 9.04 16.5351 9.04 16.2871 9.04C16.0471 9.04 15.7911 9.044 15.5191 9.052C15.2551 9.06 14.9991 9.068 14.7511 9.076C14.5111 9.076 14.3191 9.084 14.1751 9.1L14.2591 10.132C14.3791 10.156 14.5551 10.18 14.7871 10.204C15.0271 10.236 15.2751 10.264 15.5311 10.288C15.7871 10.312 16.0351 10.332 16.2751 10.348C16.5151 10.372 16.6951 10.388 16.8151 10.396L16.8631 9.04ZM18.0871 10.432C18.0711 10.752 17.9791 11.024 17.8111 11.248C17.6511 11.472 17.3871 11.576 17.0191 11.56C16.8351 11.552 16.6151 11.536 16.3591 11.512C16.1031 11.488 15.8351 11.46 15.5551 11.428C15.2751 11.404 14.9951 11.372 14.7151 11.332C14.4351 11.292 14.1831 11.252 13.9591 11.212C13.7031 11.156 13.4871 11.068 13.3111 10.948C13.1431 10.828 13.0391 10.628 12.9991 10.348L12.8551 8.86C12.8391 8.348 13.0791 8.06 13.5751 7.996C13.7831 7.972 14.0551 7.952 14.3911 7.936C14.7271 7.92 15.0751 7.908 15.4351 7.9C15.8031 7.892 16.1591 7.888 16.5031 7.888C16.8471 7.888 17.1311 7.892 17.3551 7.9C17.5871 7.908 17.7791 7.992 17.9311 8.152C18.0831 8.304 18.1551 8.512 18.1471 8.776L18.0871 10.432Z" fill="white"/>
</svg>
