<svg width="44" height="49" viewBox="0 0 44 49" fill="none" xmlns="http://www.w3.org/2000/svg">
<path d="M0.79975 2.144C0.79175 1.992 0.83575 1.876 0.93175 1.796C1.03575 1.708 1.15175 1.66 1.27975 1.652C1.40775 1.644 1.52375 1.68 1.62775 1.76C1.73975 1.84 1.79975 1.968 1.80775 2.144L2.01175 5.684C2.01975 5.772 2.05175 5.852 2.10775 5.924C2.16375 5.988 2.24775 6.032 2.35975 6.056C2.77575 6.16 3.16775 6.236 3.53575 6.284C3.91175 6.332 4.27575 6.364 4.62775 6.38C4.74775 6.38 4.83975 6.432 4.90375 6.536C4.96775 6.632 4.99975 6.736 4.99975 6.848C4.99975 6.96 4.96375 7.068 4.89175 7.172C4.81975 7.268 4.70375 7.316 4.54375 7.316C4.41575 7.316 4.26375 7.312 4.08775 7.304C3.91975 7.288 3.73975 7.268 3.54775 7.244C3.35575 7.212 3.15975 7.18 2.95975 7.148C2.75975 7.108 2.56375 7.068 2.37175 7.028C2.16375 6.988 1.97975 6.94 1.81975 6.884C1.65975 6.82 1.52375 6.74 1.41175 6.644C1.29975 6.548 1.20775 6.432 1.13575 6.296C1.07175 6.152 1.02775 5.98 1.00375 5.78L0.79975 2.144ZM6.27175 1.232C6.26375 1.08 6.30775 0.968 6.40375 0.896C6.49975 0.816 6.60775 0.775999 6.72775 0.775999C6.84775 0.775999 6.95975 0.816 7.06375 0.896C7.17575 0.968 7.23575 1.08 7.24375 1.232C7.25975 1.528 7.27975 1.892 7.30375 2.324C7.33575 2.756 7.36775 3.216 7.39975 3.704L8.57575 3.644C8.71975 3.644 8.83175 3.688 8.91175 3.776C8.99175 3.856 9.03175 3.96 9.03175 4.088C9.03175 4.208 8.99175 4.32 8.91175 4.424C8.83975 4.52 8.72775 4.568 8.57575 4.568L7.45975 4.616C7.49175 5.144 7.51975 5.64 7.54375 6.104C7.57575 6.56 7.59975 6.92 7.61575 7.184C7.62375 7.336 7.57975 7.452 7.48375 7.532C7.38775 7.612 7.27975 7.652 7.15975 7.652C7.03975 7.652 6.92375 7.612 6.81175 7.532C6.70775 7.452 6.65175 7.336 6.64375 7.184C6.63575 6.992 6.61975 6.748 6.59575 6.452C6.57975 6.156 6.55975 5.828 6.53575 5.468C6.51175 5.1 6.48775 4.72 6.46375 4.328C6.43975 3.936 6.41575 3.552 6.39175 3.176C6.36775 2.792 6.34375 2.432 6.31975 2.096C6.30375 1.76 6.28775 1.472 6.27175 1.232ZM11.952 5.624C11.656 5.624 11.38 5.572 11.124 5.468C10.876 5.364 10.66 5.22 10.476 5.036C10.292 4.844 10.148 4.616 10.044 4.352C9.93997 4.08 9.87997 3.78 9.86397 3.452C9.85597 3.1 9.89997 2.772 9.99597 2.468C10.092 2.164 10.236 1.9 10.428 1.676C10.628 1.444 10.868 1.264 11.148 1.136C11.428 1 11.748 0.931999 12.108 0.931999C12.388 0.931999 12.652 0.987999 12.9 1.1C13.148 1.204 13.364 1.352 13.548 1.544C13.74 1.736 13.892 1.968 14.004 2.24C14.124 2.504 14.188 2.796 14.196 3.116C14.204 3.452 14.16 3.772 14.064 4.076C13.976 4.38 13.836 4.648 13.644 4.88C13.452 5.104 13.216 5.284 12.936 5.42C12.656 5.556 12.328 5.624 11.952 5.624ZM12.096 1.916C11.904 1.916 11.728 1.956 11.568 2.036C11.416 2.108 11.284 2.216 11.172 2.36C11.06 2.496 10.976 2.66 10.92 2.852C10.864 3.036 10.844 3.24 10.86 3.464C10.876 3.784 10.98 4.064 11.172 4.304C11.372 4.536 11.636 4.652 11.964 4.652C12.372 4.652 12.68 4.524 12.888 4.268C13.096 4.012 13.2 3.688 13.2 3.296C13.2 3.088 13.168 2.9 13.104 2.732C13.048 2.556 12.968 2.408 12.864 2.288C12.76 2.168 12.64 2.076 12.504 2.012C12.376 1.948 12.24 1.916 12.096 1.916ZM14.28 6.596C14.416 6.596 14.52 6.644 14.592 6.74C14.664 6.828 14.7 6.932 14.7 7.052C14.708 7.164 14.676 7.272 14.604 7.376C14.54 7.472 14.432 7.524 14.28 7.532L10.02 7.724C9.89997 7.732 9.80797 7.692 9.74397 7.604C9.68797 7.508 9.65597 7.404 9.64797 7.292C9.64797 7.172 9.67597 7.064 9.73197 6.968C9.79597 6.864 9.89197 6.808 10.02 6.8L14.28 6.596ZM15.336 1.232C15.328 1.08 15.372 0.968 15.468 0.896C15.564 0.816 15.672 0.775999 15.792 0.775999C15.912 0.775999 16.024 0.816 16.128 0.896C16.24 0.968 16.3 1.08 16.308 1.232C16.332 1.584 16.36 2.036 16.392 2.588C16.432 3.14 16.468 3.708 16.5 4.292C16.54 4.876 16.576 5.432 16.608 5.96C16.64 6.48 16.664 6.888 16.68 7.184C16.688 7.336 16.644 7.452 16.548 7.532C16.452 7.612 16.344 7.652 16.224 7.652C16.104 7.652 15.988 7.612 15.876 7.532C15.772 7.452 15.716 7.336 15.708 7.184C15.7 6.992 15.684 6.748 15.66 6.452C15.644 6.156 15.624 5.828 15.6 5.468C15.576 5.1 15.552 4.72 15.528 4.328C15.504 3.936 15.48 3.552 15.456 3.176C15.432 2.792 15.408 2.432 15.384 2.096C15.368 1.76 15.352 1.472 15.336 1.232ZM23.8812 4.388C23.5852 4.388 23.3092 4.344 23.0532 4.256C22.8052 4.16 22.5892 4.028 22.4052 3.86C22.2212 3.692 22.0732 3.488 21.9612 3.248C21.8572 3.008 21.8012 2.74 21.7932 2.444C21.7852 2.156 21.8292 1.876 21.9252 1.604C22.0292 1.324 22.1772 1.08 22.3692 0.872C22.5612 0.664 22.7972 0.496 23.0772 0.368C23.3572 0.24 23.6772 0.176 24.0372 0.176C24.3172 0.176 24.5812 0.228 24.8292 0.331999C25.0852 0.435999 25.3092 0.575999 25.5012 0.752C25.6932 0.928 25.8452 1.136 25.9572 1.376C26.0692 1.616 26.1252 1.868 26.1252 2.132C26.1252 2.428 26.0772 2.716 25.9812 2.996C25.8852 3.268 25.7452 3.508 25.5612 3.716C25.3772 3.916 25.1452 4.08 24.8652 4.208C24.5852 4.328 24.2572 4.388 23.8812 4.388ZM24.0252 1.064C23.6412 1.064 23.3292 1.188 23.0892 1.436C22.8572 1.684 22.7572 2.024 22.7892 2.456C22.8052 2.76 22.9092 3.012 23.1012 3.212C23.3012 3.412 23.5652 3.512 23.8932 3.512C24.3012 3.512 24.6092 3.4 24.8172 3.176C25.0252 2.952 25.1292 2.652 25.1292 2.276C25.1292 1.876 25.0172 1.576 24.7932 1.376C24.5692 1.168 24.3132 1.064 24.0252 1.064ZM26.4612 5C26.5972 5 26.6972 5.048 26.7612 5.144C26.8332 5.24 26.8692 5.348 26.8692 5.468C26.8772 5.58 26.8452 5.688 26.7732 5.792C26.7092 5.888 26.6052 5.936 26.4612 5.936L24.6972 6.032L24.7932 7.904C24.8092 8.072 24.7612 8.196 24.6492 8.276C24.5452 8.364 24.4252 8.408 24.2892 8.408C24.1612 8.408 24.0412 8.364 23.9292 8.276C23.8172 8.196 23.7572 8.072 23.7492 7.904L23.6412 6.08L21.5292 6.188C21.4092 6.196 21.3172 6.156 21.2532 6.068C21.1972 5.972 21.1652 5.868 21.1572 5.756C21.1572 5.636 21.1852 5.528 21.2412 5.432C21.3052 5.328 21.4012 5.272 21.5292 5.264L26.4612 5ZM32.6781 0.296C32.8221 0.296 32.9301 0.344 33.0021 0.439999C33.0821 0.536 33.1221 0.64 33.1221 0.752C33.1301 0.864 33.0981 0.968 33.0261 1.064C32.9541 1.16 32.8381 1.208 32.6781 1.208C32.5581 1.208 32.4141 1.212 32.2461 1.22C32.0781 1.22 31.8981 1.224 31.7061 1.232L30.7701 2.468L33.1341 3.176C33.3101 3.224 33.4261 3.308 33.4821 3.428C33.5461 3.54 33.5621 3.652 33.5301 3.764C33.5061 3.876 33.4381 3.968 33.3261 4.04C33.2141 4.104 33.0741 4.112 32.9061 4.064L30.1941 3.236L29.2461 4.472C29.1421 4.6 29.0221 4.672 28.8861 4.688C28.7581 4.696 28.6421 4.668 28.5381 4.604C28.4421 4.532 28.3781 4.436 28.3461 4.316C28.3141 4.188 28.3461 4.06 28.4421 3.932L30.4581 1.28C30.1381 1.296 29.8301 1.312 29.5341 1.328C29.2381 1.344 28.9861 1.36 28.7781 1.376C28.6421 1.392 28.5341 1.356 28.4541 1.268C28.3821 1.18 28.3421 1.08 28.3341 0.968C28.3341 0.856 28.3701 0.748 28.4421 0.644C28.5141 0.539999 28.6261 0.48 28.7781 0.464C29.0261 0.44 29.3301 0.42 29.6901 0.404C30.0581 0.38 30.4301 0.36 30.8061 0.344C31.1821 0.328 31.5381 0.316 31.8741 0.308C32.2181 0.3 32.4861 0.296 32.6781 0.296ZM33.4221 5C33.5581 5 33.6581 5.048 33.7221 5.144C33.7941 5.24 33.8301 5.348 33.8301 5.468C33.8381 5.58 33.8061 5.688 33.7341 5.792C33.6701 5.888 33.5661 5.936 33.4221 5.936L31.6581 6.032L31.7541 7.904C31.7701 8.072 31.7221 8.196 31.6101 8.276C31.5061 8.364 31.3861 8.408 31.2501 8.408C31.1221 8.408 31.0021 8.364 30.8901 8.276C30.7781 8.196 30.7181 8.072 30.7101 7.904L30.6021 6.08L28.4901 6.188C28.3701 6.196 28.2781 6.156 28.2141 6.068C28.1581 5.972 28.1261 5.868 28.1181 5.756C28.1181 5.636 28.1461 5.528 28.2021 5.432C28.2661 5.328 28.3621 5.272 28.4901 5.264L33.4221 5ZM36.9391 6.764C36.6511 6.764 36.3911 6.708 36.1591 6.596C35.9351 6.484 35.7431 6.328 35.5831 6.128C35.4231 5.928 35.2991 5.684 35.2111 5.396C35.1231 5.108 35.0791 4.792 35.0791 4.448C35.0791 4.088 35.1191 3.748 35.1991 3.428C35.2791 3.108 35.3991 2.832 35.5591 2.6C35.7271 2.368 35.9351 2.184 36.1831 2.048C36.4311 1.912 36.7191 1.844 37.0471 1.844C37.6151 1.844 38.0591 2.044 38.3791 2.444C38.6991 2.836 38.8711 3.36 38.8951 4.016L39.8671 3.968C39.8511 3.464 39.8391 2.984 39.8311 2.528C39.8231 2.072 39.8151 1.676 39.8071 1.34C39.8071 1.188 39.8551 1.076 39.9511 1.004C40.0471 0.932 40.1551 0.9 40.2751 0.908C40.3951 0.908 40.5031 0.948 40.5991 1.028C40.7031 1.108 40.7591 1.224 40.7671 1.376C40.7831 1.736 40.7951 2.184 40.8031 2.72C40.8191 3.248 40.8311 3.788 40.8391 4.34C40.8551 4.892 40.8671 5.416 40.8751 5.912C40.8831 6.408 40.8871 6.796 40.8871 7.076C40.8871 7.228 40.8351 7.344 40.7311 7.424C40.6351 7.496 40.5271 7.532 40.4071 7.532C40.2871 7.524 40.1751 7.48 40.0711 7.4C39.9751 7.312 39.9271 7.192 39.9271 7.04C39.9191 6.808 39.9111 6.504 39.9031 6.128C39.9031 5.744 39.8991 5.328 39.8911 4.88L38.8231 4.94C38.7271 5.484 38.5231 5.924 38.2111 6.26C37.9071 6.596 37.4831 6.764 36.9391 6.764ZM37.0351 2.732C36.7151 2.732 36.4751 2.884 36.3151 3.188C36.1631 3.484 36.0871 3.9 36.0871 4.436C36.0871 4.892 36.1631 5.248 36.3151 5.504C36.4671 5.752 36.6751 5.876 36.9391 5.876C37.2671 5.876 37.5071 5.716 37.6591 5.396C37.8191 5.076 37.8951 4.668 37.8871 4.172C37.8871 3.972 37.8711 3.784 37.8391 3.608C37.8071 3.432 37.7551 3.28 37.6831 3.152C37.6191 3.024 37.5311 2.924 37.4191 2.852C37.3151 2.772 37.1871 2.732 37.0351 2.732ZM41.6791 1.232C41.6711 1.08 41.7151 0.968 41.8111 0.896C41.9071 0.816 42.0151 0.775999 42.1351 0.775999C42.2551 0.775999 42.3671 0.816 42.4711 0.896C42.5831 0.968 42.6431 1.08 42.6511 1.232C42.6671 1.472 42.6871 1.76 42.7111 2.096C42.7351 2.432 42.7591 2.788 42.7831 3.164C42.8071 3.54 42.8311 3.924 42.8551 4.316C42.8791 4.708 42.8991 5.084 42.9151 5.444C42.9391 5.804 42.9591 6.136 42.9751 6.44C42.9991 6.744 43.0151 6.992 43.0231 7.184C43.0311 7.336 42.9871 7.452 42.8911 7.532C42.7951 7.612 42.6871 7.652 42.5671 7.652C42.4471 7.652 42.3311 7.612 42.2191 7.532C42.1151 7.452 42.0591 7.336 42.0511 7.184C42.0431 6.992 42.0271 6.744 42.0031 6.44C41.9871 6.136 41.9671 5.804 41.9431 5.444C41.9191 5.084 41.8951 4.708 41.8711 4.316C41.8471 3.924 41.8231 3.54 41.7991 3.164C41.7751 2.788 41.7511 2.432 41.7271 2.096C41.7111 1.76 41.6951 1.472 41.6791 1.232ZM10.4853 15.144C10.4773 14.992 10.5213 14.876 10.6173 14.796C10.7213 14.708 10.8373 14.66 10.9653 14.652C11.0933 14.644 11.2093 14.68 11.3133 14.76C11.4253 14.84 11.4853 14.968 11.4933 15.144L11.6973 18.684C11.7053 18.772 11.7373 18.852 11.7933 18.924C11.8493 18.988 11.9333 19.032 12.0453 19.056C12.4613 19.16 12.8533 19.236 13.2213 19.284C13.5973 19.332 13.9613 19.364 14.3133 19.38C14.4333 19.38 14.5253 19.432 14.5893 19.536C14.6533 19.632 14.6853 19.736 14.6853 19.848C14.6853 19.96 14.6493 20.068 14.5773 20.172C14.5053 20.268 14.3893 20.316 14.2293 20.316C14.1013 20.316 13.9493 20.312 13.7733 20.304C13.6053 20.288 13.4253 20.268 13.2333 20.244C13.0413 20.212 12.8453 20.18 12.6453 20.148C12.4453 20.108 12.2493 20.068 12.0573 20.028C11.8493 19.988 11.6653 19.94 11.5053 19.884C11.3453 19.82 11.2093 19.74 11.0973 19.644C10.9853 19.548 10.8933 19.432 10.8213 19.296C10.7573 19.152 10.7133 18.98 10.6893 18.78L10.4853 15.144ZM16.1973 14.232C16.1893 14.08 16.2333 13.968 16.3293 13.896C16.4253 13.816 16.5333 13.776 16.6533 13.776C16.7733 13.776 16.8853 13.816 16.9893 13.896C17.1013 13.968 17.1613 14.08 17.1693 14.232C17.2013 14.592 17.2333 15.048 17.2653 15.6C17.3053 16.152 17.3413 16.72 17.3733 17.304C17.4053 17.888 17.4373 18.44 17.4693 18.96C17.5013 19.48 17.5253 19.888 17.5413 20.184C17.5493 20.336 17.5053 20.452 17.4093 20.532C17.3133 20.612 17.2053 20.652 17.0853 20.652C16.9653 20.652 16.8493 20.612 16.7373 20.532C16.6333 20.452 16.5773 20.336 16.5693 20.184C16.5613 20.04 16.5493 19.864 16.5333 19.656C16.5253 19.44 16.5133 19.208 16.4973 18.96C16.4813 18.704 16.4653 18.432 16.4493 18.144C16.4333 17.856 16.4133 17.564 16.3893 17.268L14.4213 17.388C14.2853 17.396 14.1773 17.356 14.0973 17.268C14.0173 17.18 13.9733 17.08 13.9653 16.968C13.9573 16.856 13.9893 16.748 14.0613 16.644C14.1333 16.54 14.2453 16.48 14.3973 16.464L16.3413 16.356C16.3093 15.948 16.2813 15.56 16.2573 15.192C16.2333 14.816 16.2133 14.496 16.1973 14.232ZM18.7735 17.772C18.7975 17.22 19.0655 16.944 19.5775 16.944H21.7735L21.6055 15.588C21.5895 15.524 21.5655 15.484 21.5335 15.468C21.5015 15.452 21.4615 15.444 21.4135 15.444C21.2695 15.444 21.1055 15.448 20.9215 15.456C20.7455 15.456 20.5615 15.46 20.3695 15.468C20.1855 15.468 20.0015 15.472 19.8175 15.48C19.6415 15.488 19.4855 15.5 19.3495 15.516C19.2135 15.532 19.1015 15.5 19.0135 15.42C18.9335 15.34 18.8815 15.248 18.8575 15.144C18.8415 15.032 18.8575 14.928 18.9055 14.832C18.9615 14.728 19.0535 14.664 19.1815 14.64C19.4855 14.592 19.8575 14.56 20.2975 14.544C20.7455 14.528 21.1855 14.52 21.6175 14.52C21.9135 14.52 22.1335 14.588 22.2775 14.724C22.4215 14.86 22.5095 15.044 22.5415 15.276L22.7575 17.016C22.7975 17.32 22.7655 17.536 22.6615 17.664C22.5575 17.792 22.3655 17.856 22.0855 17.856H19.7815V18.792C19.7815 18.992 19.8895 19.124 20.1055 19.188C20.3135 19.236 20.5335 19.28 20.7655 19.32C21.0055 19.352 21.2335 19.384 21.4495 19.416C21.6735 19.44 21.8775 19.46 22.0615 19.476C22.2455 19.492 22.3855 19.5 22.4815 19.5C22.6415 19.5 22.7615 19.548 22.8415 19.644C22.9215 19.74 22.9615 19.848 22.9615 19.968C22.9615 20.088 22.9215 20.196 22.8415 20.292C22.7615 20.388 22.6415 20.436 22.4815 20.436C22.3375 20.436 22.1375 20.424 21.8815 20.4C21.6335 20.376 21.3655 20.344 21.0775 20.304C20.7895 20.264 20.4975 20.216 20.2015 20.16C19.9135 20.104 19.6615 20.044 19.4455 19.98C19.2375 19.916 19.0775 19.796 18.9655 19.62C18.8535 19.436 18.7935 19.216 18.7855 18.96L18.7735 17.772ZM24.1135 14.232C24.1055 14.08 24.1495 13.968 24.2455 13.896C24.3415 13.816 24.4495 13.776 24.5695 13.776C24.6895 13.776 24.8015 13.816 24.9055 13.896C25.0175 13.968 25.0775 14.08 25.0855 14.232C25.1015 14.528 25.1215 14.892 25.1455 15.324C25.1775 15.756 25.2095 16.216 25.2415 16.704L26.4175 16.644C26.5615 16.644 26.6735 16.688 26.7535 16.776C26.8335 16.856 26.8735 16.96 26.8735 17.088C26.8735 17.208 26.8335 17.32 26.7535 17.424C26.6815 17.52 26.5695 17.568 26.4175 17.568L25.3015 17.616C25.3335 18.144 25.3615 18.64 25.3855 19.104C25.4175 19.56 25.4415 19.92 25.4575 20.184C25.4655 20.336 25.4215 20.452 25.3255 20.532C25.2295 20.612 25.1215 20.652 25.0015 20.652C24.8815 20.652 24.7655 20.612 24.6535 20.532C24.5495 20.452 24.4935 20.336 24.4855 20.184C24.4775 19.992 24.4615 19.748 24.4375 19.452C24.4215 19.156 24.4015 18.828 24.3775 18.468C24.3535 18.1 24.3295 17.72 24.3055 17.328C24.2815 16.936 24.2575 16.552 24.2335 16.176C24.2095 15.792 24.1855 15.432 24.1615 15.096C24.1455 14.76 24.1295 14.472 24.1135 14.232ZM28.0058 13.368C27.9818 13.224 28.0178 13.112 28.1138 13.032C28.2098 12.944 28.3218 12.896 28.4498 12.888C28.5778 12.88 28.6978 12.916 28.8098 12.996C28.9298 13.068 28.9978 13.192 29.0138 13.368L29.2178 15.168C29.2258 15.256 29.2578 15.32 29.3138 15.36C29.3698 15.4 29.4538 15.428 29.5658 15.444C29.7738 15.476 29.9898 15.504 30.2138 15.528C30.4458 15.552 30.6738 15.572 30.8978 15.588C31.1218 15.604 31.3338 15.616 31.5338 15.624C31.7338 15.632 31.9138 15.64 32.0738 15.648C32.1938 15.656 32.2858 15.708 32.3498 15.804C32.4138 15.9 32.4458 16.008 32.4458 16.128C32.4458 16.24 32.4098 16.344 32.3378 16.44C32.2658 16.536 32.1498 16.584 31.9898 16.584C31.8618 16.584 31.7058 16.584 31.5218 16.584C31.3378 16.576 31.1378 16.564 30.9218 16.548C30.7138 16.532 30.4938 16.512 30.2618 16.488C30.0298 16.464 29.8018 16.44 29.5778 16.416C29.1538 16.368 28.8298 16.272 28.6058 16.128C28.3818 15.976 28.2498 15.696 28.2098 15.288L28.0058 13.368ZM32.8418 17.412C32.9778 17.404 33.0778 17.448 33.1418 17.544C33.2138 17.64 33.2498 17.748 33.2498 17.868C33.2578 17.98 33.2258 18.088 33.1538 18.192C33.0898 18.288 32.9858 18.336 32.8418 18.336L27.9098 18.588C27.7898 18.596 27.6978 18.552 27.6338 18.456C27.5778 18.36 27.5458 18.256 27.5378 18.144C27.5378 18.032 27.5658 17.928 27.6218 17.832C27.6858 17.728 27.7818 17.672 27.9098 17.664L32.8418 17.412ZM28.3178 19.452C28.3178 19.308 28.3698 19.2 28.4738 19.128C28.5778 19.048 28.6938 19.008 28.8218 19.008C28.9498 19 29.0658 19.036 29.1698 19.116C29.2738 19.188 29.3258 19.3 29.3258 19.452L29.3618 20.46C29.3618 20.66 29.4698 20.792 29.6858 20.856C29.8938 20.904 30.1338 20.948 30.4058 20.988C30.6858 21.02 30.9578 21.048 31.2218 21.072C31.4938 21.104 31.7418 21.128 31.9658 21.144C32.1898 21.16 32.3498 21.168 32.4458 21.168C32.6058 21.168 32.7258 21.216 32.8058 21.312C32.8858 21.416 32.9258 21.524 32.9258 21.636C32.9258 21.756 32.8858 21.864 32.8058 21.96C32.7258 22.064 32.6058 22.116 32.4458 22.116C32.3018 22.116 32.0858 22.104 31.7978 22.08C31.5098 22.056 31.1978 22.024 30.8618 21.984C30.5258 21.944 30.1938 21.896 29.8658 21.84C29.5378 21.784 29.2658 21.724 29.0498 21.66C28.8418 21.596 28.6818 21.472 28.5698 21.288C28.4578 21.112 28.3978 20.896 28.3898 20.64L28.3178 19.452ZM18.3354 32.608C18.1114 32.744 17.8674 32.92 17.6034 33.136C17.3474 33.352 17.0954 33.552 16.8474 33.736C16.5994 33.92 16.3714 34.064 16.1634 34.168C15.9554 34.28 15.7954 34.292 15.6834 34.204C15.5634 34.116 15.5114 33.956 15.5274 33.724C15.5514 33.484 15.5994 33.212 15.6714 32.908C15.7514 32.604 15.8394 32.288 15.9354 31.96C16.0394 31.632 16.1074 31.336 16.1394 31.072C15.9714 30.88 15.7874 30.68 15.5874 30.472C15.3954 30.256 15.2194 30.048 15.0594 29.848C14.8994 29.648 14.7714 29.468 14.6754 29.308C14.5794 29.14 14.5434 29.008 14.5674 28.912C14.5994 28.808 14.6994 28.732 14.8674 28.684C15.0354 28.636 15.2394 28.604 15.4794 28.588C15.7194 28.564 15.9794 28.548 16.2594 28.54C16.5394 28.532 16.8034 28.516 17.0514 28.492C17.2114 28.244 17.3754 27.98 17.5434 27.7C17.7114 27.412 17.8754 27.148 18.0354 26.908C18.2034 26.66 18.3634 26.456 18.5154 26.296C18.6674 26.136 18.8074 26.06 18.9354 26.068C19.0394 26.076 19.1354 26.16 19.2234 26.32C19.3114 26.48 19.3954 26.68 19.4754 26.92C19.5634 27.16 19.6474 27.42 19.7274 27.7C19.8154 27.98 19.9034 28.24 19.9914 28.48C20.2554 28.528 20.5314 28.572 20.8194 28.612C21.1154 28.652 21.3834 28.704 21.6234 28.768C21.8634 28.824 22.0634 28.892 22.2234 28.972C22.3914 29.052 22.4834 29.16 22.4994 29.296C22.5154 29.392 22.4634 29.508 22.3434 29.644C22.2234 29.78 22.0674 29.932 21.8754 30.1C21.6834 30.26 21.4674 30.432 21.2274 30.616C20.9954 30.792 20.7674 30.968 20.5434 31.144C20.5834 31.44 20.6274 31.756 20.6754 32.092C20.7314 32.428 20.7754 32.748 20.8074 33.052C20.8394 33.348 20.8514 33.604 20.8434 33.82C20.8354 34.036 20.7914 34.172 20.7114 34.228C20.6154 34.284 20.4794 34.264 20.3034 34.168C20.1274 34.072 19.9314 33.94 19.7154 33.772C19.4994 33.596 19.2714 33.404 19.0314 33.196C18.7914 32.98 18.5594 32.784 18.3354 32.608ZM19.9914 32.932L19.7034 30.82L21.3474 29.5L19.3314 29.14L18.7314 27.436L17.5914 29.2L15.6834 29.368L17.0514 30.88L16.4754 32.992L18.3354 31.648L19.9914 32.932ZM26.6117 28.732C26.3157 28.732 26.0397 28.688 25.7837 28.6C25.5357 28.512 25.3197 28.388 25.1357 28.228C24.9517 28.068 24.8037 27.876 24.6917 27.652C24.5877 27.42 24.5317 27.168 24.5237 26.896C24.5157 26.624 24.5597 26.36 24.6557 26.104C24.7597 25.848 24.9077 25.62 25.0997 25.42C25.2917 25.22 25.5277 25.06 25.8077 24.94C26.0877 24.82 26.4077 24.76 26.7677 24.76C27.0477 24.76 27.3117 24.812 27.5597 24.916C27.8157 25.012 28.0397 25.144 28.2317 25.312C28.4237 25.48 28.5757 25.676 28.6877 25.9C28.7997 26.116 28.8557 26.348 28.8557 26.596C28.8557 26.876 28.8077 27.148 28.7117 27.412C28.6157 27.668 28.4757 27.896 28.2917 28.096C28.1077 28.288 27.8757 28.444 27.5957 28.564C27.3157 28.676 26.9877 28.732 26.6117 28.732ZM26.7557 25.648C26.3797 25.648 26.0717 25.764 25.8317 25.996C25.5917 26.22 25.4877 26.516 25.5197 26.884C25.5357 27.14 25.6397 27.368 25.8317 27.568C26.0317 27.76 26.2957 27.856 26.6237 27.856C27.0317 27.856 27.3397 27.752 27.5477 27.544C27.7557 27.328 27.8597 27.056 27.8597 26.728C27.8597 26.392 27.7477 26.128 27.5237 25.936C27.2997 25.744 27.0437 25.648 26.7557 25.648ZM29.1917 29.284C29.3277 29.284 29.4277 29.332 29.4917 29.428C29.5637 29.516 29.5997 29.62 29.5997 29.74C29.6077 29.852 29.5757 29.96 29.5037 30.064C29.4397 30.16 29.3357 30.212 29.1917 30.22L24.2477 30.472C24.1277 30.48 24.0357 30.44 23.9717 30.352C23.9157 30.256 23.8837 30.152 23.8757 30.04C23.8757 29.92 23.9037 29.812 23.9597 29.716C24.0237 29.612 24.1197 29.556 24.2477 29.548L29.1917 29.284ZM24.7157 33.604C24.7077 33.348 24.7757 33.172 24.9197 33.076C25.0717 32.972 25.2757 32.92 25.5317 32.92H27.9797L27.8717 32.164C27.8557 32.1 27.8317 32.06 27.7997 32.044C27.7677 32.028 27.7277 32.02 27.6797 32.02C27.5357 32.02 27.3637 32.024 27.1637 32.032C26.9637 32.032 26.7557 32.036 26.5397 32.044C26.3317 32.052 26.1277 32.064 25.9277 32.08C25.7357 32.088 25.5677 32.1 25.4237 32.116C25.2877 32.124 25.1757 32.088 25.0877 32.008C25.0077 31.928 24.9597 31.836 24.9437 31.732C24.9277 31.628 24.9437 31.528 24.9917 31.432C25.0477 31.328 25.1397 31.264 25.2677 31.24C25.4197 31.224 25.5997 31.208 25.8077 31.192C26.0237 31.176 26.2477 31.164 26.4797 31.156C26.7197 31.14 26.9597 31.132 27.1997 31.132C27.4477 31.124 27.6797 31.12 27.8957 31.12C28.1917 31.12 28.4037 31.192 28.5317 31.336C28.6677 31.48 28.7557 31.66 28.7957 31.876L28.9757 32.944C29.0957 33.52 28.8717 33.808 28.3037 33.808H25.6877L25.6997 34.348C25.6997 34.388 25.7077 34.42 25.7237 34.444C25.7397 34.476 25.7797 34.5 25.8437 34.516C26.0437 34.564 26.2757 34.604 26.5397 34.636C26.8037 34.668 27.0797 34.696 27.3677 34.72C27.6557 34.752 27.9437 34.776 28.2317 34.792C28.5197 34.816 28.7837 34.832 29.0237 34.84C29.1357 34.848 29.2237 34.888 29.2877 34.96C29.3517 35.04 29.3837 35.136 29.3837 35.248C29.3837 35.36 29.3517 35.46 29.2877 35.548C29.2237 35.636 29.1317 35.68 29.0117 35.68C28.7397 35.68 28.4517 35.672 28.1477 35.656C27.8517 35.64 27.5557 35.616 27.2597 35.584C26.9637 35.56 26.6757 35.528 26.3957 35.488C26.1157 35.448 25.8597 35.404 25.6277 35.356C25.3077 35.292 25.0837 35.188 24.9557 35.044C24.8357 34.908 24.7677 34.676 24.7517 34.348L24.7157 33.604ZM9.76459 39.68C9.75659 39.528 9.80059 39.412 9.89659 39.332C10.0006 39.244 10.1166 39.196 10.2446 39.188C10.3726 39.18 10.4886 39.216 10.5926 39.296C10.7046 39.376 10.7646 39.504 10.7726 39.68L10.9166 41.936C10.9246 42.024 10.9566 42.104 11.0126 42.176C11.0686 42.24 11.1526 42.284 11.2646 42.308C11.6806 42.412 12.0846 42.488 12.4766 42.536C12.8686 42.584 13.2406 42.616 13.5926 42.632C13.7126 42.632 13.8046 42.684 13.8686 42.788C13.9326 42.884 13.9646 42.988 13.9646 43.1C13.9646 43.212 13.9286 43.32 13.8566 43.424C13.7846 43.52 13.6686 43.568 13.5086 43.568C13.3806 43.568 13.2246 43.564 13.0406 43.556C12.8646 43.54 12.6766 43.52 12.4766 43.496C12.2766 43.464 12.0726 43.432 11.8646 43.4C11.6646 43.36 11.4686 43.32 11.2766 43.28C11.0686 43.24 10.8846 43.192 10.7246 43.136C10.5646 43.072 10.4286 42.992 10.3166 42.896C10.2046 42.8 10.1126 42.684 10.0406 42.548C9.97659 42.404 9.93259 42.232 9.90859 42.032L9.76459 39.68ZM17.5406 40.604C17.6846 40.604 17.7966 40.648 17.8766 40.736C17.9566 40.816 17.9966 40.92 17.9966 41.048C17.9966 41.16 17.9566 41.268 17.8766 41.372C17.8046 41.476 17.6926 41.528 17.5406 41.528L16.4246 41.576C16.4406 41.96 16.4566 42.324 16.4726 42.668C16.4886 43.004 16.5046 43.296 16.5206 43.544C16.5286 43.696 16.4806 43.812 16.3766 43.892C16.2806 43.972 16.1686 44.012 16.0406 44.012C15.9206 44.012 15.8086 43.972 15.7046 43.892C15.6006 43.812 15.5446 43.696 15.5366 43.544C15.5286 43.264 15.5166 42.936 15.5006 42.56C15.4846 42.176 15.4646 41.776 15.4406 41.36C15.4166 40.944 15.3926 40.524 15.3686 40.1C15.3446 39.676 15.3206 39.28 15.2966 38.912C15.2886 38.76 15.3326 38.648 15.4286 38.576C15.5246 38.496 15.6326 38.456 15.7526 38.456C15.8726 38.456 15.9846 38.496 16.0886 38.576C16.2006 38.648 16.2606 38.76 16.2686 38.912C16.2846 39.168 16.3006 39.444 16.3166 39.74C16.3326 40.036 16.3486 40.34 16.3646 40.652L17.5406 40.604ZM15.5006 45.476C15.3246 45.476 15.1046 45.476 14.8406 45.476C14.5766 45.476 14.3006 45.48 14.0126 45.488C13.7246 45.496 13.4446 45.504 13.1726 45.512C12.9086 45.52 12.6886 45.532 12.5126 45.548L12.6206 47.252C12.7646 47.276 12.9646 47.304 13.2206 47.336C13.4766 47.368 13.7406 47.396 14.0126 47.42C14.2926 47.452 14.5606 47.48 14.8166 47.504C15.0806 47.528 15.2926 47.544 15.4526 47.552L15.5006 45.476ZM16.4366 47.432C16.4206 47.736 16.3446 47.984 16.2086 48.176C16.0726 48.368 15.8446 48.456 15.5246 48.44C15.3406 48.432 15.1206 48.416 14.8646 48.392C14.6086 48.368 14.3406 48.34 14.0606 48.308C13.7886 48.284 13.5126 48.252 13.2326 48.212C12.9606 48.172 12.7126 48.132 12.4886 48.092C12.2406 48.044 12.0446 47.968 11.9006 47.864C11.7566 47.768 11.6686 47.592 11.6366 47.336L11.4926 45.44C11.4846 44.992 11.6846 44.744 12.0926 44.696C12.3006 44.672 12.5686 44.652 12.8966 44.636C13.2326 44.62 13.5806 44.608 13.9406 44.6C14.3006 44.592 14.6486 44.588 14.9846 44.588C15.3286 44.588 15.6126 44.592 15.8366 44.6C16.0446 44.608 16.2086 44.676 16.3286 44.804C16.4486 44.932 16.5046 45.116 16.4966 45.356L16.4366 47.432ZM21.5648 40.676C21.9808 40.676 22.2608 40.76 22.4048 40.928C22.5488 41.096 22.5648 41.364 22.4528 41.732C22.3728 41.996 22.2608 42.312 22.1168 42.68C21.9728 43.048 21.8088 43.436 21.6248 43.844C21.4408 44.244 21.2408 44.648 21.0248 45.056C20.8168 45.456 20.6008 45.828 20.3768 46.172C20.2968 46.3 20.1888 46.372 20.0528 46.388C19.9248 46.396 19.8088 46.364 19.7048 46.292C19.6008 46.22 19.5248 46.124 19.4768 46.004C19.4368 45.876 19.4568 45.744 19.5368 45.608C19.9848 44.888 20.3608 44.212 20.6648 43.58C20.9768 42.948 21.2248 42.388 21.4088 41.9C21.4488 41.796 21.4528 41.72 21.4208 41.672C21.3968 41.624 21.3248 41.6 21.2048 41.6C20.9568 41.6 20.7288 41.6 20.5208 41.6C20.3208 41.592 20.1288 41.584 19.9448 41.576C19.7608 41.568 19.5808 41.56 19.4048 41.552C19.2368 41.544 19.0608 41.536 18.8768 41.528C18.7488 41.528 18.6528 41.484 18.5888 41.396C18.5248 41.3 18.4928 41.188 18.4928 41.06C18.5008 40.956 18.5448 40.856 18.6248 40.76C18.7048 40.664 18.8208 40.62 18.9728 40.628C19.3648 40.636 19.7688 40.644 20.1848 40.652C20.6008 40.66 21.0608 40.668 21.5648 40.676ZM24.3008 40.232C24.2928 40.08 24.3368 39.968 24.4328 39.896C24.5288 39.816 24.6368 39.776 24.7568 39.776C24.8768 39.776 24.9888 39.816 25.0928 39.896C25.2048 39.968 25.2648 40.08 25.2728 40.232C25.3048 40.592 25.3368 41.048 25.3688 41.6C25.4088 42.152 25.4448 42.72 25.4768 43.304C25.5088 43.888 25.5408 44.44 25.5728 44.96C25.6048 45.48 25.6288 45.888 25.6448 46.184C25.6528 46.336 25.6088 46.452 25.5128 46.532C25.4168 46.612 25.3088 46.652 25.1888 46.652C25.0688 46.652 24.9528 46.612 24.8408 46.532C24.7368 46.452 24.6808 46.336 24.6728 46.184C24.6568 46.008 24.6408 45.784 24.6248 45.512C24.6088 45.24 24.5928 44.936 24.5768 44.6L23.1248 44.672C22.9808 44.672 22.8688 44.632 22.7888 44.552C22.7088 44.464 22.6688 44.356 22.6688 44.228C22.6688 44.108 22.7048 44 22.7768 43.904C22.8568 43.8 22.9728 43.748 23.1248 43.748L24.5168 43.688C24.5008 43.504 24.4888 43.316 24.4808 43.124C24.4728 42.932 24.4608 42.744 24.4448 42.56L23.2448 42.632C23.1008 42.632 22.9888 42.592 22.9088 42.512C22.8288 42.424 22.7888 42.316 22.7888 42.188C22.7888 42.068 22.8248 41.96 22.8968 41.864C22.9768 41.76 23.0928 41.708 23.2448 41.708L24.3848 41.636C24.3688 41.364 24.3528 41.108 24.3368 40.868C24.3288 40.628 24.3168 40.416 24.3008 40.232ZM30.9331 39.452C31.0771 39.452 31.1851 39.5 31.2571 39.596C31.3371 39.692 31.3771 39.796 31.3771 39.908C31.3851 40.02 31.3531 40.124 31.2811 40.22C31.2091 40.316 31.0931 40.364 30.9331 40.364C30.8131 40.364 30.6771 40.368 30.5251 40.376C30.3811 40.376 30.2291 40.376 30.0691 40.376L29.2051 41.636L31.3171 42.188C31.4931 42.228 31.6131 42.304 31.6771 42.416C31.7411 42.528 31.7571 42.64 31.7251 42.752C31.6931 42.864 31.6211 42.956 31.5091 43.028C31.4051 43.1 31.2731 43.116 31.1131 43.076L28.6651 42.416L27.9211 43.508C27.8331 43.644 27.7251 43.72 27.5971 43.736C27.4691 43.752 27.3531 43.728 27.2491 43.664C27.1451 43.592 27.0731 43.496 27.0331 43.376C27.0011 43.248 27.0291 43.112 27.1171 42.968L28.8571 40.436C28.6011 40.452 28.3531 40.468 28.1131 40.484C27.8731 40.5 27.6531 40.516 27.4531 40.532C27.3171 40.548 27.2091 40.512 27.1291 40.424C27.0571 40.336 27.0171 40.236 27.0091 40.124C27.0091 40.012 27.0451 39.904 27.1171 39.8C27.1891 39.696 27.3011 39.636 27.4531 39.62C27.7011 39.596 27.9851 39.576 28.3051 39.56C28.6251 39.536 28.9451 39.516 29.2651 39.5C29.5931 39.484 29.9051 39.472 30.2011 39.464C30.4971 39.456 30.7411 39.452 30.9331 39.452ZM31.5451 43.856C31.6811 43.856 31.7851 43.904 31.8571 44C31.9291 44.088 31.9651 44.192 31.9651 44.312C31.9731 44.424 31.9411 44.532 31.8691 44.636C31.7971 44.732 31.6891 44.784 31.5451 44.792L29.9371 44.876L30.0571 46.604C30.0731 46.772 30.0291 46.896 29.9251 46.976C29.8211 47.056 29.7051 47.096 29.5771 47.096C29.4491 47.096 29.3291 47.056 29.2171 46.976C29.1051 46.896 29.0451 46.772 29.0371 46.604L28.9291 44.924L27.1411 45.008C27.0211 45.016 26.9291 44.972 26.8651 44.876C26.8091 44.78 26.7811 44.676 26.7811 44.564C26.7811 44.444 26.8091 44.336 26.8651 44.24C26.9291 44.136 27.0211 44.08 27.1411 44.072L31.5451 43.856ZM32.4571 39.992C32.4491 39.84 32.4931 39.728 32.5891 39.656C32.6851 39.576 32.7931 39.536 32.9131 39.536C33.0331 39.536 33.1451 39.572 33.2491 39.644C33.3611 39.716 33.4211 39.832 33.4291 39.992C33.4531 40.312 33.4771 40.72 33.5011 41.216C33.5331 41.712 33.5651 42.248 33.5971 42.824C33.6291 43.4 33.6611 44 33.6931 44.624C33.7251 45.24 33.7571 45.84 33.7891 46.424C33.7971 46.576 33.7531 46.692 33.6571 46.772C33.5611 46.852 33.4531 46.892 33.3331 46.892C33.2131 46.892 33.0971 46.852 32.9851 46.772C32.8811 46.692 32.8251 46.576 32.8171 46.424C32.8091 46.376 32.8051 46.328 32.8051 46.28C32.8051 46.224 32.8011 46.172 32.7931 46.124L31.6171 46.16C31.4651 46.176 31.3451 46.136 31.2571 46.04C31.1771 45.936 31.1371 45.824 31.1371 45.704C31.1291 45.6 31.1611 45.504 31.2331 45.416C31.3131 45.32 31.4331 45.268 31.5931 45.26L32.7571 45.212C32.7251 44.716 32.6931 44.224 32.6611 43.736C32.6371 43.248 32.6091 42.776 32.5771 42.32C32.5531 41.864 32.5291 41.44 32.5051 41.048C32.4891 40.648 32.4731 40.296 32.4571 39.992Z" fill="white"/>
</svg>
